# Blender 4.3.2
# www.blender.org
mtllib sword.mtl
o LP_2.002
v 0.460014 0.050590 -0.008593
v 0.477553 0.056522 -0.008839
v 0.364561 0.073387 -0.008864
v 0.405627 0.075124 -0.009046
v 0.421586 0.075100 -0.008841
v 0.452473 0.072099 -0.008963
v 0.475490 0.059845 -0.008845
v 0.479323 0.051878 -0.008930
v 0.479722 0.048958 -0.009012
v 0.461466 0.046931 -0.008555
v 0.460916 0.048551 -0.008590
v 0.459337 0.051773 -0.008562
v 0.448133 0.058662 -0.008695
v 0.438856 0.057559 -0.008674
v 0.421887 0.051741 -0.008498
v 0.406340 0.053127 -0.008409
v 0.388025 0.052179 -0.008379
v 0.379769 0.049276 -0.008367
v 0.377539 0.044435 -0.008695
v 0.376923 0.036797 -0.008900
v 0.377965 0.026690 -0.009130
v 0.381702 0.021360 -0.009174
v 0.387631 0.017072 -0.009211
v 0.393139 0.013939 -0.008830
v 0.393151 0.012360 -0.008787
v 0.386324 0.012449 -0.009187
v 0.379499 0.012802 -0.009116
v 0.364490 0.013400 -0.008871
v 0.438825 0.074184 -0.008893
v 0.387401 0.074566 -0.009092
v 0.364355 0.042555 -0.009063
v 0.364395 0.028029 -0.009012
v 0.479595 0.033926 -0.008629
v 0.463249 0.035380 -0.008339
v 0.478322 0.025664 -0.008603
v 0.465204 0.026011 -0.007502
v 0.477118 0.019085 -0.008385
v 0.465583 0.022939 -0.007162
v 0.472996 0.010012 -0.007934
v 0.462959 0.019259 -0.006766
v 0.463920 0.002208 -0.008511
v 0.453859 0.003627 -0.008775
v 0.437906 0.010422 -0.005344
v 0.438192 0.012739 -0.005373
v 0.445657 0.016033 -0.007516
v 0.452037 0.016621 -0.008247
v 0.457739 0.018359 -0.008641
v 0.445315 0.007244 -0.007073
v 0.442800 0.007626 -0.006675
v 0.443166 0.016065 -0.006792
v 0.440347 0.008360 -0.006359
v 0.440676 0.015372 -0.006404
v 0.438870 0.008646 -0.005250
v 0.438542 0.013808 -0.005183
v 0.449287 0.015855 -0.008171
v 0.449378 0.005841 -0.007866
v 0.458321 0.002128 -0.008994
v 0.454890 0.017782 -0.008435
v 0.470966 0.007323 -0.007956
v 0.460047 0.018791 -0.008400
v 0.468238 0.004254 -0.008205
v 0.459208 0.018712 -0.008682
v 0.465455 0.021643 -0.007140
v 0.475470 0.015074 -0.008239
v 0.464510 0.067875 -0.008816
v 0.455594 0.056104 -0.008634
v 0.457904 0.070446 -0.008916
v 0.452580 0.057700 -0.008674
v 0.469198 0.065432 -0.008844
v 0.472456 0.063086 -0.008823
v 0.458515 0.053119 -0.008586
v 0.457109 0.054825 -0.008614
v 0.447438 0.073150 -0.009009
v 0.443151 0.058445 -0.008605
v 0.396791 0.053003 -0.008391
v 0.396487 0.074917 -0.009128
v 0.383643 0.051500 -0.008456
v 0.375873 0.074109 -0.009099
v 0.442940 0.012690 -0.007006
v 0.442777 0.009687 -0.007247
v 0.440488 0.012899 -0.006847
v 0.440353 0.009816 -0.006662
v 0.468953 0.021569 -0.008641
v 0.471670 0.020672 -0.009369
v 0.459618 0.013622 -0.009623
v 0.461260 0.010595 -0.009510
v 0.473037 0.034472 -0.009481
v 0.469699 0.034640 -0.009312
v 0.449331 0.009802 -0.008167
v 0.448878 0.012575 -0.008803
v 0.456711 0.008999 -0.009641
v 0.455969 0.012550 -0.009643
v 0.464455 0.015011 -0.008971
v 0.466588 0.012514 -0.009354
v 0.462235 0.014450 -0.009532
v 0.464508 0.011369 -0.009328
v 0.468544 0.014847 -0.009257
v 0.466313 0.017155 -0.008896
v 0.470972 0.017757 -0.009169
v 0.468246 0.019353 -0.008689
v 0.469756 0.025584 -0.009106
v 0.472841 0.025553 -0.009355
v 0.445373 0.009579 -0.007246
v 0.445438 0.012643 -0.007664
v 0.452646 0.012410 -0.009315
v 0.453836 0.008484 -0.009092
v 0.467589 0.047714 -0.009558
v 0.473692 0.048639 -0.009557
v 0.460014 0.050583 0.004328
v 0.477527 0.056532 0.004601
v 0.364576 0.073401 0.004601
v 0.405604 0.075102 0.004800
v 0.421586 0.075100 0.004572
v 0.452470 0.072089 0.004712
v 0.475487 0.059814 0.004578
v 0.479404 0.051952 0.004875
v 0.479801 0.049251 0.004869
v 0.461465 0.046903 0.004280
v 0.460907 0.048553 0.004320
v 0.459340 0.051755 0.004291
v 0.448131 0.058662 0.004432
v 0.438784 0.057548 0.004338
v 0.421857 0.051676 0.004217
v 0.406382 0.053078 0.004208
v 0.388201 0.052074 0.004285
v 0.379856 0.049277 0.004062
v 0.377544 0.044435 0.004427
v 0.376923 0.036800 0.004636
v 0.377968 0.026691 0.004864
v 0.381693 0.021352 0.004923
v 0.387625 0.017061 0.004955
v 0.393137 0.013949 0.004564
v 0.393160 0.012333 0.004561
v 0.386328 0.012436 0.004946
v 0.379497 0.012769 0.004891
v 0.364491 0.013396 0.004605
v 0.438827 0.074185 0.004629
v 0.387401 0.074567 0.004827
v 0.364353 0.043123 0.004801
v 0.364395 0.028028 0.004748
v 0.479594 0.033923 0.004368
v 0.463220 0.035384 0.004152
v 0.478318 0.025660 0.004342
v 0.465131 0.025993 0.003225
v 0.477122 0.019084 0.004117
v 0.465545 0.022942 0.002887
v 0.472979 0.010000 0.003677
v 0.463054 0.019275 0.002536
v 0.463920 0.002210 0.004246
v 0.453867 0.003623 0.004509
v 0.437839 0.010200 0.000856
v 0.438070 0.012652 0.001062
v 0.445658 0.016065 0.003243
v 0.452047 0.016634 0.004014
v 0.457721 0.018359 0.004395
v 0.445314 0.007245 0.002811
v 0.442796 0.007606 0.002385
v 0.443157 0.016106 0.002553
v 0.440356 0.008407 0.002134
v 0.440647 0.015414 0.002150
v 0.438787 0.008583 0.000997
v 0.438508 0.013819 0.000923
v 0.449274 0.015869 0.003962
v 0.449368 0.005836 0.003610
v 0.458322 0.002150 0.004748
v 0.454870 0.017756 0.004169
v 0.470970 0.007322 0.003690
v 0.460044 0.018793 0.004138
v 0.468221 0.004224 0.003933
v 0.459210 0.018714 0.004418
v 0.465445 0.021708 0.002868
v 0.475466 0.015076 0.003982
v 0.464502 0.067881 0.004551
v 0.455570 0.056110 0.004355
v 0.457911 0.070434 0.004657
v 0.452580 0.057698 0.004410
v 0.469198 0.065428 0.004579
v 0.472450 0.063066 0.004553
v 0.458527 0.053105 0.004321
v 0.457117 0.054825 0.004355
v 0.447436 0.073135 0.004755
v 0.443149 0.058444 0.004345
v 0.396855 0.053046 0.004127
v 0.396489 0.074913 0.004866
v 0.383828 0.051376 0.004355
v 0.375873 0.074110 0.004835
v 0.442937 0.012669 0.002760
v 0.442779 0.009690 0.002983
v 0.440503 0.012897 0.002597
v 0.440385 0.009766 0.002448
v 0.468890 0.021550 0.004389
v 0.471673 0.020672 0.005106
v 0.459618 0.013625 0.005359
v 0.461260 0.010595 0.005246
v 0.473046 0.034467 0.005214
v 0.469704 0.034641 0.005051
v 0.449331 0.009801 0.003904
v 0.448885 0.012580 0.004544
v 0.456711 0.008999 0.005378
v 0.455967 0.012550 0.005380
v 0.464461 0.015012 0.004708
v 0.466588 0.012515 0.005091
v 0.462249 0.014454 0.005264
v 0.464507 0.011370 0.005062
v 0.468547 0.014860 0.004994
v 0.466315 0.017149 0.004643
v 0.470976 0.017757 0.004906
v 0.468257 0.019364 0.004457
v 0.469765 0.025585 0.004843
v 0.472843 0.025562 0.005095
v 0.445375 0.009565 0.002985
v 0.445440 0.012661 0.003403
v 0.452645 0.012410 0.005052
v 0.453833 0.008493 0.004827
v 0.467595 0.047714 0.005297
v 0.473692 0.048645 0.005292
v 0.364333 0.073615 0.001023
v 0.364335 0.073615 -0.005286
v 0.405695 0.075186 -0.004839
v 0.405813 0.075141 0.000621
v 0.421703 0.075305 0.000764
v 0.421640 0.075548 -0.004610
v 0.452440 0.072208 0.000642
v 0.452580 0.072250 -0.004747
v 0.475922 0.060055 -0.004827
v 0.475902 0.060055 0.000789
v 0.479463 0.051914 0.000613
v 0.479448 0.051831 -0.004753
v 0.479734 0.049334 0.000577
v 0.479800 0.049201 -0.004858
v 0.461054 0.046548 -0.004732
v 0.461000 0.046525 0.000452
v 0.460379 0.048154 0.000449
v 0.460366 0.048173 -0.004750
v 0.458951 0.051262 0.000460
v 0.458949 0.051261 -0.004832
v 0.448098 0.058109 0.000333
v 0.448077 0.058144 -0.004649
v 0.438830 0.056949 0.000420
v 0.438830 0.056949 -0.004712
v 0.421901 0.050602 0.000350
v 0.421901 0.050602 -0.004601
v 0.406002 0.052398 0.000502
v 0.405966 0.052355 -0.004768
v 0.388125 0.051128 0.001016
v 0.388118 0.051116 -0.005274
v 0.380851 0.048342 0.001056
v 0.380841 0.048366 -0.005341
v 0.378524 0.044224 0.001027
v 0.378505 0.044167 -0.005555
v 0.377666 0.036758 0.001019
v 0.377666 0.036757 -0.005281
v 0.378431 0.026840 0.001006
v 0.378434 0.026837 -0.005266
v 0.381891 0.021614 0.000945
v 0.381891 0.021614 -0.005209
v 0.387810 0.017406 0.001041
v 0.387810 0.017406 -0.005305
v 0.393706 0.014289 0.001017
v 0.393705 0.014290 -0.005280
v 0.393554 0.011993 -0.005273
v 0.393543 0.011949 0.001008
v 0.386347 0.012081 0.001080
v 0.386350 0.012153 -0.005308
v 0.379536 0.012318 -0.000023
v 0.379553 0.012332 -0.004396
v 0.364279 0.013170 -0.000945
v 0.364279 0.013170 -0.003362
v 0.438702 0.074646 0.000758
v 0.438856 0.074646 -0.004438
v 0.387402 0.075082 0.001036
v 0.387403 0.075082 -0.005299
v 0.363850 0.041670 -0.005577
v 0.363960 0.041658 0.001315
v 0.364081 0.020735 -0.004156
v 0.364150 0.020712 -0.000154
v 0.480464 0.033844 0.001042
v 0.480464 0.033846 -0.005307
v 0.462121 0.035196 -0.005311
v 0.462135 0.035197 0.001063
v 0.479216 0.025595 0.001008
v 0.479216 0.025595 -0.005272
v 0.463831 0.025505 -0.005323
v 0.463797 0.025456 0.001074
v 0.477865 0.018851 0.001054
v 0.477868 0.018862 -0.005319
v 0.463895 0.022971 -0.005521
v 0.463823 0.022970 0.001240
v 0.473986 0.009319 -0.005257
v 0.473986 0.009318 0.000995
v 0.462746 0.021008 -0.005571
v 0.462734 0.021008 0.001294
v 0.464122 0.001430 0.001029
v 0.464121 0.001430 -0.005292
v 0.453677 0.003159 0.001011
v 0.453635 0.003061 -0.005326
v 0.437554 0.010178 -0.001386
v 0.437574 0.010178 -0.002880
v 0.437593 0.012359 -0.001324
v 0.437528 0.012389 -0.002996
v 0.445678 0.016623 0.001009
v 0.445659 0.016608 -0.005318
v 0.451527 0.017249 0.000978
v 0.451588 0.017282 -0.005330
v 0.457448 0.019297 0.001016
v 0.457472 0.019313 -0.005322
v 0.445071 0.006526 0.000166
v 0.445057 0.006507 -0.004440
v 0.459578 0.050085 -0.004803
v 0.459581 0.050083 0.000485
v 0.477951 0.056619 -0.004804
v 0.477884 0.056586 0.000689
v 0.442548 0.006984 -0.000621
v 0.442535 0.006977 -0.003627
v 0.443051 0.016484 -0.005325
v 0.443053 0.016604 0.001085
v 0.440412 0.007539 -0.000993
v 0.440403 0.007542 -0.003271
v 0.440524 0.015755 -0.005401
v 0.440498 0.015783 0.001140
v 0.438818 0.008251 -0.003027
v 0.438771 0.008228 -0.001308
v 0.438403 0.013977 -0.003344
v 0.438372 0.013943 -0.000929
v 0.449130 0.016561 -0.005310
v 0.449171 0.016577 0.000976
v 0.449271 0.005276 -0.005229
v 0.449269 0.005288 0.000941
v 0.458264 0.001708 -0.005315
v 0.458262 0.001708 0.001058
v 0.454653 0.018612 -0.005239
v 0.454542 0.018558 0.000953
v 0.471946 0.006424 0.000997
v 0.471944 0.006423 -0.005253
v 0.460286 0.020071 -0.005287
v 0.460288 0.020052 0.000973
v 0.468869 0.003470 -0.005297
v 0.468869 0.003470 0.001034
v 0.459023 0.019654 -0.005280
v 0.459025 0.019633 0.001029
v 0.463625 0.022109 0.001245
v 0.463633 0.022101 -0.005507
v 0.476307 0.014624 0.000992
v 0.476309 0.014623 -0.005253
v 0.464735 0.068136 0.000706
v 0.464741 0.068167 -0.004788
v 0.455230 0.055744 -0.004521
v 0.455244 0.055695 0.000451
v 0.458030 0.070527 -0.004717
v 0.458027 0.070569 0.000677
v 0.452288 0.057308 -0.004698
v 0.452363 0.057215 0.000358
v 0.469439 0.065726 -0.004862
v 0.469444 0.065749 0.000725
v 0.472703 0.063258 0.000783
v 0.472703 0.063250 -0.004808
v 0.457997 0.052721 -0.004814
v 0.457998 0.052739 0.000459
v 0.456799 0.054316 0.000410
v 0.456782 0.054367 -0.004833
v 0.447493 0.073436 -0.004729
v 0.447373 0.073419 0.000663
v 0.443252 0.057911 -0.004654
v 0.443251 0.057911 0.000304
v 0.396790 0.051965 -0.005262
v 0.396807 0.052161 0.001017
v 0.396467 0.075392 -0.005302
v 0.396467 0.075392 0.001040
v 0.383931 0.050367 -0.005296
v 0.383944 0.050338 0.001023
v 0.375857 0.074626 -0.005276
v 0.375858 0.074626 0.001013
v 0.387601 0.068953 0.005367
v 0.471372 0.057784 -0.009642
v 0.369651 0.065836 0.005251
v 0.451288 0.068380 -0.009634
v 0.405432 0.069512 0.005084
v 0.366979 0.044055 0.005251
v 0.438845 0.070184 -0.009678
v 0.421626 0.070303 -0.009670
v 0.468687 0.060430 -0.009643
v 0.405432 0.069502 -0.009346
v 0.446412 0.069472 0.005393
v 0.372718 0.021493 0.005218
v 0.387601 0.068956 -0.009630
v 0.366869 0.032846 0.005085
v 0.369659 0.065817 -0.009516
v 0.366979 0.044054 -0.009513
v 0.396446 0.069283 0.005320
v 0.446409 0.069462 -0.009656
v 0.370226 0.019104 -0.009591
v 0.377908 0.068403 0.005327
v 0.366866 0.032845 -0.009346
v 0.451290 0.068387 0.005371
v 0.396440 0.069293 -0.009574
v 0.377909 0.068401 -0.009589
v 0.456537 0.067211 0.005383
v 0.473048 0.055022 0.005367
v 0.462081 0.064724 0.005390
v 0.473589 0.050920 0.005416
v 0.471378 0.057788 0.005379
v 0.456535 0.067206 -0.009646
v 0.473047 0.055022 -0.009630
v 0.438845 0.070182 0.005415
v 0.462082 0.064725 -0.009654
v 0.421627 0.070304 0.005407
v 0.468690 0.060433 0.005380
v 0.466198 0.062843 -0.009661
v 0.473540 0.050839 -0.009680
v 0.466199 0.062844 0.005397
v 0.377427 0.020905 0.005113
v 0.376228 0.018117 0.005376
v 0.377411 0.020886 -0.009359
v 0.375976 0.017810 -0.009569
v 0.464980 0.054572 -0.009646
v 0.376522 0.054840 0.005239
v 0.449423 0.062501 -0.009641
v 0.444451 0.062354 0.005337
v 0.374907 0.023706 0.005382
v 0.421856 0.059717 -0.009758
v 0.387897 0.057332 -0.009655
v 0.406213 0.058615 -0.009482
v 0.372836 0.035180 0.005386
v 0.461098 0.058335 -0.009631
v 0.376540 0.054820 -0.009512
v 0.373673 0.046326 -0.009597
v 0.461095 0.058333 0.005368
v 0.396753 0.057860 0.005361
v 0.444451 0.062353 -0.009601
v 0.374908 0.023707 -0.009645
v 0.381589 0.057669 0.005212
v 0.372837 0.035180 -0.009649
v 0.396752 0.057893 -0.009626
v 0.454049 0.061166 0.005390
v 0.381879 0.056343 -0.009512
v 0.465737 0.052489 0.005378
v 0.388055 0.058175 0.005287
v 0.458513 0.059951 0.005375
v 0.466760 0.049564 0.005411
v 0.454049 0.061165 -0.009653
v 0.464981 0.054573 0.005383
v 0.465736 0.052488 -0.009642
v 0.449422 0.062500 0.005378
v 0.373669 0.046327 0.005334
v 0.438921 0.062051 0.005394
v 0.438992 0.062059 -0.009731
v 0.458513 0.059952 -0.009638
v 0.421827 0.059655 0.005479
v 0.406254 0.058556 0.005277
v 0.466757 0.049564 -0.009674
v 0.463077 0.056394 -0.009636
v 0.463079 0.056395 0.005373
v 0.338758 0.007113 -0.002874
v 0.338486 0.074447 -0.005175
v 0.240412 0.028094 -0.002657
v 0.239114 0.078199 -0.005161
v 0.108369 0.001642 -0.002462
v 0.091942 0.076982 -0.005274
v 0.069752 -0.011054 -0.002540
v 0.050613 0.067620 -0.005211
v -0.187441 -0.013984 -0.002590
v -0.132545 0.007016 -0.005159
v 0.005938 0.054906 -0.005123
v 0.028880 -0.023055 -0.002534
v 0.172279 0.079782 -0.005242
v 0.177561 0.021929 -0.002675
v 0.289849 0.021599 -0.002664
v 0.288571 0.076608 -0.005143
v 0.339101 0.014393 -0.003664
v 0.238097 0.038171 -0.004563
v 0.106325 0.010660 -0.004128
v 0.067650 -0.004237 -0.004029
v -0.170986 -0.007227 -0.003967
v 0.027368 -0.016389 -0.003966
v 0.176286 0.032735 -0.004544
v 0.287752 0.032590 -0.004497
v 0.338778 0.041039 -0.005595
v 0.238414 0.054303 -0.005734
v 0.097513 0.036134 -0.005449
v 0.059110 0.023867 -0.005710
v 0.018990 0.011821 -0.005650
v 0.174583 0.051374 -0.005754
v 0.288137 0.050193 -0.005776
v -0.112940 0.013795 -0.005184
v 0.263874 0.077577 -0.005244
v 0.264188 0.025716 -0.002699
v 0.262935 0.035397 -0.004426
v 0.263281 0.052242 -0.005684
v 0.209941 0.026407 -0.002772
v 0.205555 0.079344 -0.005297
v 0.207190 0.035465 -0.004318
v 0.206533 0.052842 -0.005703
v 0.127478 0.079899 -0.005210
v 0.149086 0.014732 -0.002661
v 0.144930 0.023332 -0.004281
v 0.137612 0.045044 -0.005704
v 0.338238 0.074504 0.001037
v 0.240414 0.028094 -0.001454
v 0.239217 0.078128 0.001107
v 0.092189 0.076838 0.001307
v 0.069883 -0.011048 -0.001618
v 0.051378 0.067942 0.001028
v -0.132463 0.007093 0.001025
v 0.006757 0.055052 0.001137
v 0.028924 -0.022984 -0.001480
v 0.172493 0.079797 0.001127
v 0.177569 0.021893 -0.001465
v 0.288464 0.076605 0.001028
v 0.339101 0.014392 -0.000444
v 0.238097 0.038171 0.000453
v 0.106325 0.010660 0.000018
v 0.067650 -0.004237 -0.000084
v -0.170996 -0.007136 -0.000163
v 0.027368 -0.016389 -0.000147
v 0.176286 0.032735 0.000434
v 0.287752 0.032590 0.000387
v 0.338756 0.041044 0.001484
v 0.238415 0.054303 0.001624
v 0.097514 0.036128 0.001335
v 0.059110 0.023867 0.001598
v 0.018990 0.011821 0.001538
v 0.174583 0.051374 0.001643
v 0.288137 0.050193 0.001665
v -0.112982 0.013908 0.000972
v 0.263730 0.077488 0.001209
v 0.262935 0.035397 0.000316
v 0.263281 0.052241 0.001574
v 0.209935 0.026403 -0.001339
v 0.206165 0.079359 0.001183
v 0.207194 0.035465 0.000208
v 0.206533 0.052841 0.001593
v 0.128340 0.079757 0.001225
v 0.149048 0.014736 -0.001436
v 0.144930 0.023333 0.000171
v 0.137612 0.045044 0.001593
v -0.187441 -0.013984 -0.001514
v 0.108366 0.001597 -0.001743
v 0.338724 0.007114 -0.001233
v 0.289701 0.021870 -0.001303
v 0.264060 0.026054 -0.001199
v -0.004635 -0.028443 -0.002468
v -0.035176 -0.030279 -0.002484
v -0.047582 0.037549 -0.005136
v -0.018561 0.047297 -0.005126
v -0.035795 -0.023123 -0.003896
v -0.005214 -0.021564 -0.003900
v -0.040756 0.002371 -0.005609
v -0.010462 0.005508 -0.005632
v -0.035137 -0.030290 -0.001649
v -0.004605 -0.028430 -0.001631
v -0.047297 0.037484 0.001147
v -0.018275 0.047247 0.001135
v -0.005216 -0.021565 -0.000212
v -0.035782 -0.023122 -0.000216
v -0.010466 0.005507 0.001520
v -0.040733 0.002371 0.001496
v -0.112511 0.013953 -0.005183
v -0.078660 0.026310 -0.005153
v -0.117386 -0.025205 -0.002660
v -0.084889 -0.028404 -0.002628
v -0.083278 -0.020573 -0.003977
v -0.115651 -0.016893 -0.003997
v -0.113531 0.004616 -0.005376
v -0.081069 0.002523 -0.005573
v -0.112384 0.014119 0.000980
v -0.078430 0.026232 0.001176
v -0.115653 -0.016868 -0.000120
v -0.083302 -0.020568 -0.000135
v -0.081113 0.002521 0.001460
v -0.113536 0.004655 0.001251
v -0.084895 -0.028407 -0.001489
v -0.117385 -0.025205 -0.001452
vn -0.8990 -0.4306 0.0799
vn -0.9255 -0.3709 0.0767
vn -0.6531 -0.2684 0.7082
vn -0.6337 -0.2981 0.7139
vn -0.0730 -0.0523 -0.9960
vn -0.6565 -0.1913 -0.7296
vn -0.6504 -0.2733 -0.7087
vn -0.0813 -0.0527 -0.9953
vn 0.6784 0.3196 -0.6615
vn 0.7357 0.1737 -0.6547
vn 0.0632 0.0029 -0.9980
vn 0.0801 0.0410 -0.9959
vn 0.3112 0.6988 -0.6440
vn 0.4046 0.6393 -0.6539
vn 0.0587 0.0948 -0.9938
vn 0.0442 0.0954 -0.9945
vn 0.1279 0.7373 -0.6634
vn 0.1952 0.7349 -0.6494
vn 0.0221 0.0855 -0.9961
vn 0.0161 0.0890 -0.9959
vn 0.1833 -0.6839 -0.7062
vn 0.0862 -0.7178 -0.6909
vn 0.0026 -0.0866 -0.9962
vn 0.0248 -0.1043 -0.9942
vn 0.0003 0.7176 -0.6965
vn 0.0128 0.7349 -0.6781
vn -0.0054 0.0776 -0.9970
vn 0.0028 0.0474 -0.9989
vn 0.0455 -0.6773 -0.7343
vn 0.0847 -0.6623 -0.7444
vn 0.0099 -0.1136 -0.9935
vn 0.0151 -0.1126 -0.9935
vn 0.1951 -0.5789 -0.7918
vn 0.4412 -0.3739 -0.8158
vn 0.0418 -0.0456 -0.9981
vn 0.0190 -0.0985 -0.9950
vn 0.6187 -0.1480 -0.7716
vn 0.0928 -0.0149 -0.9956
vn 0.6816 0.0063 -0.7317
vn 0.0630 0.0080 -0.9980
vn 0.6118 0.2124 -0.7619
vn 0.0408 0.0123 -0.9991
vn 0.0640 0.0054 -0.9979
vn 0.0270 -0.0456 -0.9986
vn -0.0458 -0.0399 -0.9982
vn 0.4759 0.4376 -0.7629
vn 0.3587 0.5396 -0.7617
vn -0.0079 -0.6765 -0.7364
vn -0.0248 -0.6890 -0.7243
vn 0.6647 0.3577 -0.6559
vn 0.5485 -0.5760 -0.6061
vn 0.5013 0.5680 -0.6527
vn 0.5920 0.4573 -0.6636
vn 0.0734 0.0585 -0.9956
vn 0.0631 0.0680 -0.9957
vn 0.0556 -0.0217 -0.9982
vn 0.7238 0.0441 -0.6886
vn 0.6955 -0.0523 -0.7166
vn 0.0390 -0.0173 -0.9991
vn -0.2854 0.0107 -0.9584
vn -0.5611 0.0017 -0.8277
vn -0.5965 -0.1171 -0.7940
vn -0.2075 -0.0463 -0.9771
vn 0.1758 -0.6828 -0.7091
vn -0.1008 -0.6951 -0.7119
vn -0.0380 -0.0664 -0.9971
vn 0.0618 -0.0514 -0.9968
vn -0.1477 0.0389 -0.9883
vn -0.2573 0.6464 -0.7183
vn -0.2370 0.6659 -0.7073
vn -0.0780 0.0730 -0.9943
vn -0.3297 -0.6206 -0.7114
vn -0.1665 -0.0928 -0.9817
vn -0.9684 -0.2313 0.0934
vn -0.6582 -0.1845 0.7299
vn 0.2494 0.7226 -0.6447
vn 0.0357 0.0984 -0.9945
vn -0.9600 -0.2670 -0.0846
vn -0.8306 -0.1777 -0.5277
vn -0.6445 -0.6297 -0.4336
vn -0.6438 -0.7592 -0.0951
vn -0.2564 -0.9659 0.0357
vn -0.0461 -0.9983 0.0347
vn -0.0293 -0.6844 0.7285
vn -0.5839 -0.5578 0.5899
vn -0.8160 -0.5725 -0.0800
vn -0.5639 -0.4177 -0.7125
vn -0.6107 -0.3659 -0.7023
vn -0.8582 -0.5068 -0.0819
vn 0.1266 -0.9897 0.0676
vn -0.0816 -0.9947 0.0629
vn -0.0655 -0.7178 0.6931
vn 0.0853 -0.7272 0.6811
vn -0.8014 0.5947 0.0642
vn -0.9716 0.2245 0.0752
vn -0.8265 0.1739 0.5354
vn -0.7717 0.4599 0.4392
vn -0.9982 -0.0120 0.0581
vn -0.7070 -0.0167 0.7070
vn 0.2777 -0.9566 -0.0885
vn 0.0930 -0.7293 -0.6779
vn 0.1277 -0.9894 -0.0694
vn -0.1322 0.9840 0.1196
vn -0.0081 0.9922 0.1243
vn -0.1586 0.6490 0.7441
vn -0.1831 0.6270 0.7572
vn -0.0607 0.9964 -0.0592
vn -0.0495 0.6917 -0.7205
vn -0.5791 0.5388 -0.6118
vn -0.3413 0.9378 -0.0633
vn 0.9524 -0.2742 0.1334
vn 0.9770 -0.1708 0.1277
vn 0.6550 -0.1193 0.7461
vn 0.6572 -0.2084 0.7244
vn 0.0675 -0.9879 -0.1394
vn -0.0198 -0.6759 -0.7367
vn -0.0331 -0.9922 -0.1202
vn -0.3172 0.9393 0.1306
vn -0.3306 0.9356 0.1238
vn -0.2538 0.6493 0.7170
vn -0.2377 0.6673 0.7058
vn 0.2562 0.9664 0.0234
vn 0.1790 0.9831 0.0378
vn 0.1300 0.7372 0.6630
vn 0.1935 0.7365 0.6482
vn -0.9750 -0.1456 0.1680
vn -0.9532 -0.1161 0.2793
vn -0.5996 -0.1184 0.7915
vn -0.6400 -0.1201 0.7590
vn 0.0003 0.9997 -0.0238
vn -0.0068 0.6995 -0.7146
vn -0.0112 0.9988 -0.0487
vn -0.0104 0.9987 0.0499
vn -0.0373 0.9971 0.0661
vn -0.0269 0.6918 0.7216
vn -0.0060 0.7002 0.7140
vn 0.0694 -0.9882 0.1365
vn -0.0374 -0.9922 0.1189
vn -0.0253 -0.6857 0.7275
vn 0.0441 -0.6843 0.7279
vn -0.2298 0.9614 0.1516
vn -0.2272 0.9641 0.1378
vn -0.1640 0.6512 0.7410
vn -0.0813 0.6651 0.7423
vn -0.0606 0.9964 0.0587
vn -0.0493 0.6921 0.7202
vn -0.3424 0.9379 0.0560
vn -0.5811 0.5424 0.6067
vn 0.9107 -0.3813 0.1590
vn 0.5960 -0.2842 0.7510
vn 0.3520 -0.9220 0.1614
vn 0.1441 -0.9789 0.1448
vn 0.0897 -0.6566 0.7489
vn 0.1874 -0.5739 0.7972
vn 0.3165 0.9483 0.0247
vn 0.2476 0.7223 0.6457
vn 0.9939 -0.0596 0.0927
vn 0.6977 -0.0540 0.7144
vn -0.9204 0.0675 0.3851
vn -0.5618 -0.0030 0.8273
vn 0.7192 -0.6665 -0.1963
vn 0.3544 -0.9161 -0.1873
vn -0.3828 -0.9171 0.1112
vn -0.3747 -0.9238 0.0784
vn -0.3326 -0.6267 0.7047
vn -0.3752 -0.5762 0.7261
vn 0.7914 0.6094 -0.0481
vn 0.6575 0.7521 -0.0440
vn 0.0893 0.9947 0.0513
vn 0.0619 0.7440 0.6653
vn 0.9411 0.3313 0.0678
vn 0.9948 -0.0091 0.1014
vn 0.6831 0.0072 0.7302
vn 0.6123 0.2135 0.7612
vn 0.9747 0.2225 -0.0207
vn 0.9087 0.4155 -0.0395
vn -0.5070 0.7606 0.4056
vn -0.2451 0.9436 0.2226
vn 0.0070 0.6845 0.7290
vn -0.1901 0.5575 0.8082
vn 0.7168 0.6956 0.0480
vn 0.4771 0.4380 0.7619
vn 0.9966 0.0774 0.0272
vn 0.9737 0.2273 0.0132
vn 0.7276 0.1780 0.6625
vn 0.7308 0.0350 0.6817
vn -0.0288 -0.9985 0.0458
vn 0.6796 -0.7298 0.0744
vn 0.5478 -0.5714 0.6110
vn -0.0072 -0.6723 0.7403
vn -0.9150 0.0732 -0.3967
vn -0.4719 0.2159 -0.8548
vn -0.8098 0.4095 -0.4201
vn 0.5283 0.8472 0.0552
vn 0.3584 0.5410 0.7609
vn 0.8486 -0.4905 0.1981
vn 0.5573 -0.3387 0.7581
vn 0.8688 0.4894 0.0750
vn 0.6667 0.3618 0.6517
vn -0.1664 -0.9829 0.0789
vn 0.1914 -0.9749 0.1140
vn 0.1753 -0.6827 0.7093
vn -0.1044 -0.6943 0.7120
vn -0.8593 -0.5054 0.0785
vn -0.6151 -0.3658 0.6985
vn -0.2400 -0.9638 0.1162
vn -0.2551 -0.9583 0.1286
vn -0.2671 -0.6093 0.7466
vn -0.2354 -0.6887 0.6858
vn -0.3230 -0.9402 0.1080
vn -0.4000 -0.6074 0.6864
vn -0.1328 0.9829 -0.1272
vn -0.1837 0.6281 -0.7561
vn -0.1662 0.6465 -0.7446
vn -0.0151 0.9913 -0.1310
vn -0.3444 0.0979 -0.9337
vn -0.4326 0.5768 -0.6930
vn -0.2081 0.6583 -0.7235
vn -0.1661 0.0446 -0.9851
vn -0.6381 -0.7670 0.0670
vn -0.6367 -0.6323 0.4415
vn -0.4032 -0.6182 -0.6747
vn -0.3326 -0.9366 -0.1103
vn -0.2665 -0.6069 -0.7487
vn -0.2372 -0.6787 -0.6950
vn -0.1482 -0.1031 -0.9836
vn -0.1748 -0.1118 -0.9782
vn -0.9636 -0.2596 0.0637
vn -0.8535 -0.1962 0.4828
vn 0.5602 -0.8111 -0.1684
vn 0.4040 -0.5386 -0.7394
vn 0.4930 -0.3986 -0.7734
vn 0.7479 -0.6318 -0.2036
vn -0.8083 0.1879 -0.5579
vn -0.7662 0.4661 -0.4424
vn -0.2394 -0.9643 -0.1132
vn -0.2572 -0.9576 -0.1298
vn -0.3147 0.9402 -0.1306
vn -0.3335 0.9338 -0.1297
vn -0.3764 -0.5696 -0.7307
vn -0.2242 -0.1314 -0.9656
vn -0.3858 -0.9156 -0.1132
vn -0.3756 -0.9234 -0.0787
vn -0.2326 0.9611 -0.1486
vn -0.0842 0.6615 -0.7452
vn -0.1624 0.6502 -0.7422
vn -0.2260 0.9640 -0.1403
vn -0.6407 -0.1209 -0.7582
vn -0.1163 -0.0386 -0.9925
vn 0.5603 -0.8111 0.1678
vn 0.7480 -0.6316 0.2039
vn 0.4929 -0.3988 0.7733
vn 0.4036 -0.5408 0.7380
vn -0.1139 0.2466 -0.9624
vn -0.1776 0.5638 -0.8066
vn -0.2387 0.1331 -0.9619
vn -0.1637 -0.9835 -0.0769
vn 0.1921 -0.9748 -0.1138
vn 0.4013 0.9151 0.0394
vn 0.3109 0.6980 0.6451
vn 0.0528 0.2336 -0.9709
vn 0.0090 0.6813 -0.7319
vn 0.5585 -0.3392 -0.7569
vn 0.8485 -0.4909 -0.1977
vn -0.8121 0.4013 0.4235
vn -0.4779 0.2083 0.8534
vn -0.0110 0.0855 -0.9963
vn -0.2071 -0.0015 -0.9783
vn -0.2263 -0.0036 -0.9741
vn -0.5651 -0.8223 0.0666
vn -0.7276 -0.6822 0.0720
vn -0.4966 -0.4987 0.7104
vn -0.3870 -0.6041 0.6967
vn -0.8160 -0.5726 0.0790
vn -0.5647 -0.4188 0.7111
vn 0.5308 0.8462 0.0463
vn 0.4036 0.6378 0.6560
vn -0.3344 -0.9401 -0.0665
vn -0.2371 -0.6831 -0.6907
vn -0.3901 -0.6024 -0.6964
vn -0.5667 -0.8214 -0.0636
vn -0.5021 -0.4969 -0.7078
vn -0.0585 -0.0701 -0.9958
vn -0.0680 -0.0636 -0.9957
vn 0.7924 0.6075 0.0549
vn 0.6583 0.7511 0.0488
vn 0.5009 0.5645 0.6561
vn 0.5930 0.4549 0.6644
vn -0.0636 -0.7203 -0.6908
vn -0.0787 -0.9947 -0.0667
vn 0.5312 0.8461 -0.0443
vn 0.4012 0.9152 -0.0373
vn 0.3181 0.9478 -0.0222
vn 0.2590 0.9657 -0.0186
vn 0.1208 -0.9866 0.1097
vn 0.2778 -0.9566 0.0877
vn 0.1823 -0.6853 0.7051
vn 0.0879 -0.7225 0.6858
vn 0.0624 0.7411 -0.6685
vn 0.0074 0.0949 -0.9955
vn 0.1367 -0.9771 -0.1630
vn 0.0019 0.9995 0.0307
vn 0.0031 0.7220 0.6919
vn 0.0006 -0.0922 -0.9957
vn 0.9453 -0.2894 0.1506
vn 0.7144 -0.6757 0.1815
vn 0.4385 -0.3849 0.8122
vn 0.6223 -0.1509 0.7681
vn -0.0268 0.6916 -0.7218
vn -0.0374 0.9971 -0.0660
vn 0.0806 0.1523 -0.9850
vn 0.6564 -0.2083 -0.7251
vn 0.5967 -0.2845 -0.7503
vn 0.0265 -0.0299 -0.9992
vn -0.0195 -0.0330 -0.9993
vn 0.0457 -0.0050 -0.9989
vn 0.6553 -0.1193 -0.7459
vn 0.0233 -0.0265 -0.9994
vn 0.0919 -0.0197 -0.9956
vn -0.3658 -0.1279 -0.9218
vn 0.0973 -0.0320 -0.9947
vn -0.9669 -0.2358 -0.0975
vn -0.9738 -0.1460 -0.1741
vn 0.0506 0.0019 0.9987
vn 0.0465 -0.0280 0.9985
vn 0.6726 0.3334 0.6607
vn 0.0716 0.0467 0.9963
vn 0.0443 0.0953 0.9945
vn 0.0591 0.0951 0.9937
vn 0.0144 0.0876 0.9961
vn 0.0220 0.0847 0.9962
vn 0.0208 -0.1058 0.9942
vn 0.0058 -0.0873 0.9962
vn 0.0027 0.0481 0.9988
vn -0.0042 0.0769 0.9970
vn 0.0122 0.7434 0.6687
vn 0.0091 -0.1065 0.9943
vn 0.0068 0.0410 0.9991
vn -0.0042 0.0417 0.9991
vn 0.0047 -0.0867 0.9962
vn 0.0124 -0.0678 0.9976
vn 0.0427 -0.0437 0.9981
vn -0.0599 0.0244 0.9979
vn -0.7253 0.0014 0.6884
vn -0.0801 0.0015 0.9968
vn 0.0940 -0.0144 0.9955
vn 0.0598 0.0049 0.9982
vn 0.0325 0.0111 0.9994
vn -0.0348 -0.0233 0.9991
vn 0.0167 -0.0319 0.9994
vn 0.0637 0.0120 0.9979
vn -0.0678 -0.0640 0.9956
vn -0.0634 -0.0383 0.9973
vn 0.0367 -0.0182 0.9992
vn -0.2862 0.0118 0.9581
vn -0.2044 -0.0456 0.9778
vn 0.0627 -0.0509 0.9967
vn -0.0383 -0.0660 0.9971
vn -0.1448 0.0360 0.9888
vn -0.0774 0.0721 0.9944
vn -0.1667 -0.0926 0.9816
vn 0.9961 0.0803 -0.0352
vn 0.9937 -0.0593 -0.0955
vn -0.0169 -0.1083 0.9940
vn -0.0342 -0.1146 0.9928
vn 0.0359 0.0979 0.9945
vn -0.7957 0.6013 -0.0729
vn -0.9709 0.2260 -0.0790
vn -0.0449 -0.9982 -0.0409
vn -0.0280 -0.9983 -0.0503
vn -0.6323 -0.2991 -0.7146
vn -0.8986 -0.4313 -0.0809
vn -0.1639 0.9750 0.1501
vn -0.2007 0.6506 0.7324
vn -0.2563 -0.9658 -0.0396
vn -0.5830 -0.5604 -0.5883
vn -0.7191 -0.0000 -0.6949
vn -0.9943 -0.0022 -0.1063
vn -0.9515 -0.1159 -0.2850
vn 0.1203 -0.9863 -0.1131
vn 0.0918 0.9950 -0.0399
vn 0.0179 0.9994 -0.0287
vn 0.9770 -0.1708 -0.1276
vn -0.9962 -0.0026 0.0869
vn 0.1785 0.9834 -0.0315
vn 0.0177 0.9990 0.0420
vn 0.9069 0.4193 0.0408
vn -0.7131 -0.0146 -0.7009
vn -0.9974 -0.0152 -0.0698
vn 0.9525 -0.2739 -0.1334
vn 0.9947 -0.0100 -0.1025
vn 0.9453 -0.2825 -0.1630
vn -0.5035 0.7597 -0.4115
vn 0.9410 0.3317 -0.0675
vn 0.6819 -0.7273 -0.0782
vn 0.8689 0.4892 -0.0753
vn 0.9109 -0.3811 -0.1585
vn 0.7167 0.6958 -0.0471
vn 0.0732 0.0597 0.9955
vn 0.5286 0.8471 -0.0543
vn -0.9233 -0.3758 -0.0792
vn -0.5016 0.8515 0.1531
vn -0.4392 0.5705 0.6940
vn -0.1668 0.9741 -0.1524
vn -0.3489 0.0891 0.9329
vn -0.1617 0.0428 0.9859
vn -0.4964 0.8530 -0.1611
vn -0.1758 -0.1134 0.9779
vn -0.1426 -0.1071 0.9840
vn -0.2239 -0.1309 0.9658
vn -0.1129 -0.0386 0.9929
vn -0.2413 0.9429 -0.2296
vn -0.1143 0.2420 0.9635
vn -0.2373 0.1299 0.9627
vn 0.0513 0.2305 0.9717
vn -0.0102 0.0854 0.9963
vn -0.2257 -0.0054 0.9742
vn -0.2077 -0.0055 0.9782
vn -0.3394 -0.9387 0.0609
vn -0.2362 -0.6793 0.6948
vn -0.7297 -0.6793 -0.0783
vn -0.0590 -0.0700 0.9958
vn 0.0063 0.0927 0.9957
vn -0.0002 -0.0917 0.9958
vn 0.0815 0.1523 0.9850
vn -0.0715 -0.0510 0.9961
vn -0.0161 -0.0329 0.9993
vn 0.0290 -0.0312 0.9991
vn 0.0456 -0.0069 0.9989
vn 0.0242 -0.0262 0.9994
vn 0.0912 -0.0208 0.9956
vn -0.3665 -0.1242 0.9221
vn 0.0972 -0.0325 0.9947
vn -0.0816 -0.0529 0.9953
vn -0.0101 0.0401 0.9991
vn 0.0093 0.0418 -0.9991
vn -0.0036 0.0443 -0.9990
vn -0.0118 0.0415 -0.9991
vn -0.0608 0.0245 -0.9979
vn -0.0890 -0.0093 0.9960
vn -0.0800 0.0019 -0.9968
vn -0.0888 -0.0048 -0.9960
vn -0.0632 -0.0382 -0.9973
vn -0.0817 -0.0280 -0.9963
vn -0.0446 -0.0869 0.9952
vn -0.0439 -0.0868 -0.9953
vn -0.0345 -0.1139 -0.9929
vn -0.0169 -0.1083 -0.9940
vn 0.0638 0.0686 0.9956
vn 0.0068 -0.1232 0.9924
vn 0.0115 -0.1228 -0.9924
vn -0.0821 -0.0280 0.9962
vn -0.0029 -0.0264 -0.9996
vn -0.0001 -0.0255 -0.9997
vn 0.0010 0.0200 -0.9998
vn 0.0009 0.0206 -0.9998
vn 0.0034 -0.0227 -0.9997
vn 0.0064 -0.0211 -0.9998
vn -0.0018 0.0080 -1.0000
vn -0.0031 0.0112 -0.9999
vn 0.0075 -0.0217 -0.9997
vn -0.0022 0.0093 -1.0000
vn -0.0253 -0.1475 -0.9887
vn -0.0232 -0.1322 -0.9909
vn -0.0157 -0.1090 -0.9939
vn -0.0210 -0.1538 -0.9879
vn -0.3329 0.9428 -0.0162
vn -0.3332 0.9427 -0.0162
vn -0.3387 0.9408 -0.0077
vn -0.3387 0.9409 -0.0082
vn 0.0290 -0.1317 -0.9909
vn 0.0143 -0.1335 -0.9909
vn 0.0022 -0.0264 -0.9996
vn 0.0043 -0.0240 -0.9997
vn -0.0040 0.0110 -0.9999
vn 0.0027 -0.0278 -0.9996
vn 0.0039 -0.0239 -0.9997
vn -0.0013 0.0160 -0.9999
vn 0.0006 0.0180 -0.9998
vn -0.0023 -0.0315 -0.9995
vn -0.0036 -0.0255 -0.9997
vn 0.0024 0.0192 -0.9998
vn 0.0009 0.0143 -0.9999
vn -0.0177 -0.1264 -0.9918
vn -0.0351 -0.1563 -0.9871
vn -0.0195 -0.1150 -0.9932
vn -0.0121 -0.1038 -0.9945
vn 0.0150 -0.1707 -0.9852
vn 0.0316 -0.1654 -0.9857
vn 0.0194 -0.1131 -0.9934
vn 0.0107 -0.1217 -0.9925
vn 0.0606 -0.1878 -0.9803
vn 0.0440 -0.1995 -0.9789
vn 0.0396 -0.1219 -0.9917
vn 0.2184 -0.9755 0.0255
vn 0.2227 -0.9746 0.0250
vn 0.1113 -0.9936 0.0187
vn 0.1089 -0.9939 0.0177
vn 0.0570 -0.1730 -0.9833
vn 0.0351 -0.1114 -0.9932
vn 0.0451 -0.1659 -0.9851
vn 0.0278 -0.1121 -0.9933
vn -0.0216 -0.1779 -0.9838
vn -0.0056 -0.1801 -0.9836
vn -0.0013 -0.1236 -0.9923
vn -0.0138 -0.1266 -0.9919
vn 0.0031 -0.0856 -0.9963
vn 0.0068 -0.1062 -0.9943
vn -0.3081 0.9511 0.0211
vn -0.3076 0.9513 0.0210
vn -0.2855 0.9583 0.0081
vn -0.2873 0.9578 0.0097
vn -0.2488 0.9685 0.0011
vn -0.2439 0.9698 0.0015
vn -0.1478 0.9889 0.0165
vn -0.1509 0.9884 0.0160
vn 0.3093 -0.9505 -0.0300
vn 0.3094 -0.9505 -0.0305
vn 0.2978 -0.9544 -0.0197
vn 0.2951 -0.9553 -0.0146
vn 0.0069 1.0000 0.0035
vn 0.0071 1.0000 0.0032
vn 0.0250 0.9997 -0.0002
vn 0.0237 0.9997 -0.0006
vn 0.0316 0.9994 0.0103
vn 0.0314 0.9995 0.0104
vn 0.0400 0.9992 0.0025
vn 0.0401 0.9992 0.0024
vn -0.0030 0.0117 -0.9999
vn 0.0380 0.9993 -0.0035
vn 0.0378 0.9993 -0.0035
vn -0.3377 0.9412 -0.0134
vn -0.3375 0.9412 -0.0134
vn 0.1911 -0.9815 -0.0124
vn 0.2761 -0.9611 -0.0117
vn 0.2750 -0.9614 -0.0116
vn 0.0307 0.9995 0.0075
vn 0.0306 0.9995 0.0076
vn -0.0368 0.9992 0.0186
vn -0.0436 0.9988 0.0201
vn 0.0028 -0.1906 0.9817
vn 0.0019 -0.1302 0.9915
vn -0.0080 -0.1206 0.9927
vn -0.0115 -0.1705 0.9853
vn -0.0018 0.0109 -0.9999
vn -0.0007 -0.0290 -0.9996
vn -0.3640 0.9313 -0.0156
vn -0.3639 0.9313 -0.0156
vn -0.0098 -0.0193 0.9998
vn -0.0087 0.0223 0.9997
vn -0.0085 0.0306 0.9995
vn -0.0123 -0.0438 0.9990
vn -0.0121 -0.0459 -0.9989
vn -0.0089 -0.0215 -0.9997
vn -0.0086 0.0215 -0.9997
vn -0.0066 0.0199 -0.9998
vn -0.0073 -0.1021 0.9947
vn -0.0123 -0.1233 0.9923
vn 0.0146 -0.1062 0.9942
vn 0.0105 -0.0861 0.9962
vn -0.3397 0.9404 0.0136
vn -0.3397 0.9404 0.0140
vn -0.3290 0.9440 0.0238
vn -0.3295 0.9439 0.0239
vn -0.0186 -0.9981 0.0591
vn -0.0190 -0.9981 0.0594
vn 0.0966 -0.9953 -0.0083
vn 0.0964 -0.9953 -0.0083
vn -0.0026 -0.0273 0.9996
vn 0.0014 0.0187 0.9998
vn 0.0003 0.0182 0.9998
vn -0.0005 -0.0264 0.9997
vn 0.0040 -0.0239 0.9997
vn -0.0019 0.0086 1.0000
vn -0.0025 0.0057 1.0000
vn 0.0060 -0.0223 0.9997
vn -0.0023 0.0086 1.0000
vn 0.0076 -0.0220 0.9997
vn -0.0003 -0.0296 0.9996
vn -0.0053 -0.0270 0.9996
vn -0.0020 0.0098 0.9999
vn -0.0042 0.0132 0.9999
vn 0.0285 -0.1291 0.9912
vn 0.0051 -0.0247 0.9997
vn 0.0025 -0.0278 0.9996
vn 0.0136 -0.1320 0.9912
vn -0.0026 0.0096 1.0000
vn 0.0025 -0.0281 0.9996
vn 0.0001 0.0176 0.9998
vn -0.0004 0.0153 0.9999
vn 0.0043 -0.0243 0.9997
vn 0.0009 -0.0314 0.9995
vn 0.0037 0.0148 0.9999
vn 0.0033 0.0187 0.9998
vn -0.0031 -0.0257 0.9997
vn 0.0149 -0.1712 0.9851
vn 0.0106 -0.1220 0.9925
vn 0.0195 -0.1135 0.9933
vn 0.0318 -0.1663 0.9856
vn 0.0624 -0.1893 0.9799
vn 0.0405 -0.1228 0.9916
vn 0.0433 -0.1945 0.9800
vn -0.0024 0.0089 1.0000
vn 0.0358 -0.1140 0.9928
vn 0.0586 -0.1784 0.9822
vn 0.0455 -0.1680 0.9847
vn 0.0279 -0.1133 0.9932
vn -0.0182 -0.1101 0.9938
vn -0.0320 -0.1477 0.9885
vn -0.9989 -0.0334 -0.0336
vn -0.9988 -0.0349 -0.0336
vn 0.0055 -0.0293 0.9996
vn 0.0036 0.0113 0.9999
vn -0.0250 -0.1448 0.9891
vn -0.0209 -0.1523 0.9881
vn -0.0158 -0.1081 0.9940
vn -0.0230 -0.1299 0.9913
vn -0.0139 -0.1218 0.9925
vn -0.0018 -0.1222 0.9925
vn -0.1270 -0.9792 0.1579
vn -0.2278 -0.9656 0.1250
vn -0.2157 -0.9669 0.1366
vn -0.1225 -0.9806 0.1530
vn -0.0070 -0.1761 0.9843
vn 0.0194 -0.1971 0.9802
vn 0.0020 -0.1297 -0.9916
vn -0.0080 -0.1204 -0.9927
vn -0.0045 -0.0257 -0.9997
vn -0.0007 -0.0279 -0.9996
vn 0.0206 -0.1999 -0.9796
vn 0.0030 -0.1897 -0.9818
vn -0.0116 -0.1700 -0.9854
vn -0.1282 -0.9918 -0.0007
vn -0.1281 -0.9918 -0.0007
vn -0.0209 -0.1678 0.9856
vn -0.0229 -0.9991 0.0363
vn -0.0306 -0.9988 0.0373
vn -0.0027 0.0134 -0.9999
vn 0.0127 -0.9999 -0.0035
vn 0.0098 -0.9999 -0.0040
vn -0.0681 -0.9977 -0.0035
vn -0.0679 -0.9977 -0.0036
vn -0.0036 0.0164 -0.9999
vt 0.880133 0.442445
vt 0.877296 0.439236
vt 0.883778 0.434081
vt 0.886976 0.437692
vt 0.893376 0.291099
vt 0.887300 0.279695
vt 0.889980 0.277301
vt 0.896373 0.288213
vt 0.916251 0.303673
vt 0.909415 0.309773
vt 0.903326 0.300231
vt 0.910647 0.296545
vt 0.930924 0.274760
vt 0.927871 0.284374
vt 0.921717 0.279695
vt 0.923816 0.271011
vt 0.937662 0.240444
vt 0.936157 0.250349
vt 0.928485 0.248491
vt 0.930218 0.238553
vt 0.905720 0.222432
vt 0.897725 0.187967
vt 0.912980 0.188619
vt 0.915217 0.223296
vt 0.944495 0.157718
vt 0.943228 0.189516
vt 0.933572 0.189181
vt 0.933233 0.156902
vt 0.527718 0.115044
vt 0.526215 0.097420
vt 0.536884 0.097229
vt 0.537850 0.115024
vt 0.524980 0.088592
vt 0.520595 0.080764
vt 0.532009 0.074274
vt 0.534979 0.085090
vt 0.511003 0.075990
vt 0.515013 0.068116
vt 0.495705 0.074304
vt 0.492670 0.065889
vt 0.475352 0.075769
vt 0.469546 0.069386
vt 0.463740 0.074265
vt 0.457664 0.071168
vt 0.460617 0.059743
vt 0.464401 0.082913
vt 0.455404 0.094534
vt 0.446209 0.091607
vt 0.447364 0.077927
vt 0.448742 0.105407
vt 0.445569 0.105330
vt 0.924943 0.291222
vt 0.920749 0.298148
vt 0.914748 0.291836
vt 0.918265 0.285497
vt 0.847914 0.050837
vt 0.860601 0.050930
vt 0.858459 0.081677
vt 0.845006 0.079978
vt 0.835535 0.106761
vt 0.827433 0.103773
vt 0.827248 0.097000
vt 0.837468 0.098198
vt 0.830318 0.146124
vt 0.820673 0.147730
vt 0.814931 0.136647
vt 0.822747 0.131814
vt 0.805762 0.132166
vt 0.802328 0.124029
vt 0.807612 0.120847
vt 0.811972 0.130432
vt 0.812355 0.147728
vt 0.809805 0.139033
vt 0.874905 0.436525
vt 0.881169 0.431499
vt 0.934020 0.261250
vt 0.927123 0.259273
vt 0.775237 0.145322
vt 0.779101 0.142841
vt 0.780963 0.145483
vt 0.778493 0.148803
vt 0.110367 0.460245
vt 0.108011 0.491096
vt 0.098047 0.490905
vt 0.099099 0.460477
vt 0.890902 0.263993
vt 0.897575 0.268881
vt 0.895297 0.271570
vt 0.888727 0.266800
vt 0.889604 0.479584
vt 0.890190 0.469666
vt 0.899140 0.469477
vt 0.898282 0.480601
vt 0.720066 0.295873
vt 0.718258 0.292461
vt 0.722868 0.292416
vt 0.723358 0.294481
vt 0.635773 0.130595
vt 0.620615 0.132304
vt 0.620972 0.121131
vt 0.650339 0.120595
vt 0.897378 0.223357
vt 0.906826 0.231811
vt 0.898399 0.232510
vt 0.743336 0.304564
vt 0.736162 0.303147
vt 0.737202 0.298592
vt 0.744609 0.298286
vt 0.061458 0.924702
vt 0.069195 0.924869
vt 0.068293 0.947621
vt 0.061079 0.947912
vt 0.807331 0.292338
vt 0.814928 0.304260
vt 0.808655 0.307710
vt 0.802156 0.296057
vt 0.117123 0.643557
vt 0.123655 0.643746
vt 0.123503 0.662635
vt 0.116150 0.661803
vt 0.754874 0.307425
vt 0.748305 0.305706
vt 0.750404 0.299568
vt 0.756324 0.300963
vt 0.936629 0.462727
vt 0.937646 0.473162
vt 0.929525 0.473606
vt 0.928519 0.463622
vt 0.779570 0.338311
vt 0.776806 0.317932
vt 0.782215 0.317694
vt 0.786241 0.337351
vt 0.061657 0.864784
vt 0.070113 0.865076
vt 0.069988 0.883450
vt 0.062247 0.883336
vt 0.049526 0.883106
vt 0.049208 0.901307
vt 0.041522 0.901211
vt 0.041789 0.882942
vt 0.104581 0.643639
vt 0.105753 0.661945
vt 0.098290 0.662828
vt 0.098133 0.643919
vt 0.764341 0.308430
vt 0.761052 0.308222
vt 0.761828 0.301384
vt 0.764652 0.301684
vt 0.048850 0.924482
vt 0.041114 0.924376
vt 0.048405 0.947689
vt 0.041211 0.947109
vt 0.801783 0.285001
vt 0.797049 0.289194
vt 0.104209 0.617013
vt 0.104498 0.625956
vt 0.097649 0.626596
vt 0.097060 0.617817
vt 0.934866 0.451111
vt 0.927023 0.452563
vt 0.823183 0.319463
vt 0.816878 0.322643
vt 0.775541 0.312922
vt 0.780382 0.311205
vt 0.118068 0.609261
vt 0.125037 0.609236
vt 0.124614 0.617916
vt 0.117816 0.617201
vt 0.740868 0.273018
vt 0.749564 0.267811
vt 0.752674 0.273967
vt 0.743623 0.277901
vt 0.926938 0.302889
vt 0.931774 0.295036
vt 0.938554 0.490545
vt 0.930806 0.490603
vt 0.104773 0.562318
vt 0.104626 0.582971
vt 0.097053 0.582904
vt 0.096787 0.562239
vt 0.914457 0.316024
vt 0.921787 0.309147
vt 0.772418 0.309335
vt 0.767024 0.308722
vt 0.766253 0.302069
vt 0.772768 0.304690
vt 0.105078 0.549448
vt 0.097029 0.549129
vt 0.907231 0.392833
vt 0.911016 0.396532
vt 0.905222 0.402494
vt 0.901070 0.399055
vt 0.105678 0.504648
vt 0.106274 0.518056
vt 0.099309 0.518387
vt 0.097984 0.504744
vt 0.822361 0.103614
vt 0.827148 0.106648
vt 0.821871 0.105459
vt 0.105283 0.534883
vt 0.097470 0.534377
vt 0.794002 0.276147
vt 0.789996 0.280483
vt 0.106162 0.522283
vt 0.099251 0.521708
vt 0.782787 0.361682
vt 0.790852 0.360860
vt 0.758992 0.264206
vt 0.771228 0.263590
vt 0.770227 0.269983
vt 0.760565 0.271454
vt 0.881780 0.444652
vt 0.888764 0.440070
vt 0.726643 0.278126
vt 0.732153 0.276468
vt 0.735278 0.281343
vt 0.730476 0.282972
vt 0.722649 0.280687
vt 0.726596 0.285269
vt 0.794095 0.121656
vt 0.797213 0.126998
vt 0.790082 0.129070
vt 0.787691 0.125128
vt 0.782660 0.137577
vt 0.781497 0.133393
vt 0.785317 0.130554
vt 0.786950 0.136664
vt 0.719871 0.283462
vt 0.723506 0.285796
vt 0.784045 0.145112
vt 0.781750 0.150539
vt 0.793524 0.146040
vt 0.788470 0.145928
vt 0.787933 0.142035
vt 0.792795 0.141358
vt 0.718240 0.287928
vt 0.722234 0.288499
vt 0.841858 0.145812
vt 0.837599 0.141688
vt 0.842495 0.135671
vt 0.847339 0.139140
vt 0.778365 0.139139
vt 0.778089 0.137180
vt 0.786298 0.151778
vt 0.792044 0.151615
vt 0.804430 0.115097
vt 0.798694 0.118941
vt 0.802542 0.146749
vt 0.800483 0.138996
vt 0.801425 0.152191
vt 0.811300 0.154487
vt 0.812913 0.111282
vt 0.815279 0.117655
vt 0.812705 0.118777
vt 0.809932 0.112570
vt 0.824889 0.077097
vt 0.838139 0.079316
vt 0.781293 0.266738
vt 0.788549 0.271413
vt 0.785020 0.276184
vt 0.778471 0.271921
vt 0.830635 0.116764
vt 0.821898 0.112341
vt 0.834236 0.111611
vt 0.821403 0.155092
vt 0.833240 0.151906
vt 0.932166 0.436964
vt 0.924698 0.438899
vt 0.827304 0.121709
vt 0.816692 0.116796
vt 0.845954 0.130021
vt 0.851071 0.132944
vt 0.774639 0.311303
vt 0.779322 0.308670
vt 0.818345 0.126834
vt 0.798474 0.133673
vt 0.791656 0.135470
vt 0.887731 0.454682
vt 0.885875 0.451017
vt 0.893630 0.447223
vt 0.895531 0.451477
vt 0.883859 0.447580
vt 0.890916 0.442875
vt 0.929388 0.426608
vt 0.922183 0.429083
vt 0.897316 0.250672
vt 0.905405 0.253207
vt 0.902721 0.260698
vt 0.894611 0.256678
vt 0.900475 0.264707
vt 0.910435 0.271588
vt 0.907497 0.276613
vt 0.921987 0.410801
vt 0.926263 0.418872
vt 0.919640 0.422040
vt 0.915836 0.414800
vt 0.907170 0.242928
vt 0.898503 0.242265
vt 0.935146 0.287366
vt 0.938629 0.277180
vt 0.942149 0.263275
vt 0.944371 0.252015
vt 0.879102 0.523260
vt 0.888432 0.488657
vt 0.896521 0.490045
vt 0.886885 0.523927
vt 0.939896 0.223567
vt 0.931794 0.223407
vt 0.123832 0.626409
vt 0.117394 0.626020
vt 0.050687 0.864353
vt 0.042280 0.864630
vt 0.527867 0.134234
vt 0.539107 0.134045
vt 0.104204 0.598842
vt 0.103866 0.609029
vt 0.097123 0.609008
vt 0.096911 0.598413
vt 0.069610 0.901711
vt 0.061925 0.901532
vt 0.823044 0.124032
vt 0.822172 0.053199
vt 0.835183 0.052092
vt 0.852699 0.111470
vt 0.849970 0.119585
vt 0.840323 0.114653
vt 0.841514 0.108515
vt 0.835827 0.121072
vt 0.855300 0.098372
vt 0.843945 0.098371
vt 0.832461 0.126253
vt 0.783685 0.142628
vt 0.828726 0.129097
vt 0.899385 0.302105
vt 0.814289 0.054922
vt 0.818320 0.078195
vt 0.898594 0.411713
vt 0.894527 0.409633
vt 0.911681 0.408980
vt 0.905634 0.415838
vt 0.917361 0.442238
vt 0.915755 0.433413
vt 0.922011 0.475086
vt 0.920798 0.465051
vt 0.906109 0.489690
vt 0.902045 0.524060
vt 0.931807 0.556350
vt 0.920660 0.556530
vt 0.922669 0.524516
vt 0.932287 0.524701
vt 0.709788 0.054495
vt 0.732696 0.055051
vt 0.732093 0.072802
vt 0.710432 0.071961
vt 0.696667 0.080485
vt 0.709438 0.084984
vt 0.703778 0.095238
vt 0.692375 0.088433
vt 0.726042 0.108880
vt 0.741352 0.118999
vt 0.680570 0.120094
vt 0.682351 0.114725
vt 0.682748 0.093317
vt 0.686706 0.101242
vt 0.664336 0.103314
vt 0.667433 0.094911
vt 0.641217 0.099679
vt 0.647065 0.093316
vt 0.636868 0.104174
vt 0.629918 0.097305
vt 0.635460 0.094737
vt 0.636124 0.086129
vt 0.618979 0.090997
vt 0.617949 0.077277
vt 0.627183 0.074427
vt 0.620625 0.063482
vt 0.617374 0.063522
vt 0.901317 0.435706
vt 0.899023 0.430701
vt 0.816171 0.355373
vt 0.804554 0.328407
vt 0.828584 0.351979
vt 0.787133 0.305819
vt 0.791757 0.313376
vt 0.767419 0.285914
vt 0.758503 0.283715
vt 0.751157 0.290778
vt 0.757589 0.290531
vt 0.752895 0.283035
vt 0.869177 0.051201
vt 0.865433 0.082678
vt 0.908088 0.467468
vt 0.906550 0.457104
vt 0.920032 0.454170
vt 0.774493 0.136782
vt 0.773810 0.140740
vt 0.116817 0.491287
vt 0.126414 0.491373
vt 0.126066 0.505226
vt 0.118315 0.504860
vt 0.893366 0.273853
vt 0.886889 0.268832
vt 0.730962 0.301464
vt 0.732220 0.298617
vt 0.115259 0.460324
vt 0.126434 0.460920
vt 0.880538 0.554503
vt 0.887891 0.553644
vt 0.570455 0.043483
vt 0.569781 0.050688
vt 0.507867 0.049191
vt 0.506262 0.042076
vt 0.821923 0.098353
vt 0.893009 0.156750
vt 0.900268 0.157991
vt 0.889777 0.188147
vt 0.948743 0.224490
vt 0.951693 0.190245
vt 0.862338 0.099715
vt 0.952938 0.158305
vt 0.677760 0.127190
vt 0.946120 0.241674
vt 0.939822 0.524326
vt 0.940154 0.555929
vt 0.917477 0.404159
vt 0.478787 0.048528
vt 0.464341 0.038544
vt 0.858787 0.113396
vt 0.449472 0.047846
vt 0.449157 0.036764
vt 0.117644 0.583062
vt 0.125099 0.583069
vt 0.125207 0.598498
vt 0.118286 0.598755
vt 0.836855 0.348521
vt 0.820384 0.108006
vt 0.117727 0.562465
vt 0.125706 0.562519
vt 0.910124 0.319234
vt 0.904638 0.312910
vt 0.117318 0.518480
vt 0.124198 0.518990
vt 0.124213 0.522237
vt 0.117297 0.522628
vt 0.855764 0.122119
vt 0.117640 0.549564
vt 0.125645 0.549418
vt 0.909484 0.420807
vt 0.117825 0.535039
vt 0.125561 0.534765
vt 0.883894 0.271819
vt 0.881318 0.274402
vt 0.726406 0.298626
vt 0.727722 0.297077
vt 0.783234 0.128280
vt 0.727618 0.292712
vt 0.731929 0.292232
vt 0.779766 0.132292
vt 0.736031 0.285991
vt 0.731205 0.286885
vt 0.744054 0.285904
vt 0.798205 0.331154
vt 0.815430 0.110293
vt 0.779534 0.297793
vt 0.784579 0.301618
vt 0.774863 0.294126
vt 0.764762 0.292006
vt 0.736760 0.291994
vt 0.743791 0.291585
vt 0.889326 0.460906
vt 0.897979 0.459041
vt 0.893274 0.260650
vt 0.903972 0.440915
vt 0.922711 0.490324
vt 0.699897 0.035192
vt 0.711104 0.035434
vt 0.699821 0.054315
vt 0.698010 0.071701
vt 0.770116 0.293229
vt 0.803654 0.358023
vt 0.792424 0.302312
vt 0.789409 0.296837
vt 0.783163 0.292142
vt 0.797864 0.311238
vt 0.778362 0.288224
vt 0.727070 0.287564
vt 0.773936 0.286666
vt 0.887918 0.420389
vt 0.890777 0.423449
vt 0.050961 0.832409
vt 0.061770 0.832722
vt 0.051949 0.780619
vt 0.052139 0.770148
vt 0.062974 0.770046
vt 0.062789 0.780545
vt 0.052872 0.708115
vt 0.053124 0.698204
vt 0.063914 0.698163
vt 0.063913 0.708248
vt 0.053257 0.692989
vt 0.064184 0.692831
vt 0.106586 0.784380
vt 0.106592 0.780939
vt 0.116850 0.780891
vt 0.116815 0.784373
vt 0.106519 0.776820
vt 0.106568 0.774184
vt 0.117009 0.774179
vt 0.116952 0.776811
vt 0.106748 0.756277
vt 0.106744 0.747678
vt 0.116574 0.747566
vt 0.116723 0.756035
vt 0.106728 0.738108
vt 0.106431 0.729181
vt 0.116557 0.729104
vt 0.116511 0.738034
vt 0.106297 0.693510
vt 0.116065 0.693435
vt 0.051498 0.798217
vt 0.061945 0.798066
vt 0.207879 0.671283
vt 0.209147 0.694180
vt 0.196345 0.694239
vt 0.197467 0.671367
vt 0.210362 0.918759
vt 0.209710 0.949635
vt 0.198797 0.949997
vt 0.197608 0.918858
vt 0.209260 0.713945
vt 0.196410 0.714089
vt 0.210153 0.901997
vt 0.197539 0.902100
vt 0.209675 0.719035
vt 0.196094 0.719083
vt 0.210136 0.888205
vt 0.197334 0.888287
vt 0.209647 0.720862
vt 0.209776 0.723689
vt 0.195986 0.723703
vt 0.196085 0.720856
vt 0.209929 0.879134
vt 0.197384 0.879237
vt 0.197078 0.851926
vt 0.197003 0.841547
vt 0.209699 0.841443
vt 0.209794 0.851822
vt 0.196849 0.829766
vt 0.196864 0.820105
vt 0.209594 0.819977
vt 0.209649 0.829664
vt 0.201186 0.788277
vt 0.201372 0.783659
vt 0.204371 0.783699
vt 0.204640 0.788309
vt 0.201304 0.779277
vt 0.204666 0.779261
vt 0.196382 0.764725
vt 0.196539 0.759453
vt 0.209249 0.759501
vt 0.209258 0.764746
vt 0.196613 0.752437
vt 0.196611 0.747515
vt 0.209281 0.747384
vt 0.209238 0.752529
vt 0.196665 0.740911
vt 0.196540 0.734890
vt 0.209269 0.734839
vt 0.209101 0.740672
vt 0.196628 0.728978
vt 0.209201 0.728977
vt 0.196896 0.810272
vt 0.198361 0.801464
vt 0.207611 0.801349
vt 0.209290 0.810150
vt 0.052567 0.716144
vt 0.063855 0.716270
vt 0.199889 0.796298
vt 0.205927 0.796213
vt 0.196294 0.770115
vt 0.209433 0.770028
vt 0.200590 0.791856
vt 0.205166 0.791790
vt 0.200486 0.775737
vt 0.205336 0.775614
vt 0.197284 0.867604
vt 0.197221 0.860493
vt 0.209774 0.860387
vt 0.209842 0.867502
vt 0.196514 0.731651
vt 0.209185 0.731647
vt 0.052225 0.758443
vt 0.052361 0.744102
vt 0.063404 0.744261
vt 0.063067 0.758557
vt 0.106579 0.762705
vt 0.116390 0.762611
vt 0.117010 0.766704
vt 0.116972 0.770739
vt 0.106569 0.770714
vt 0.106665 0.766804
vt 0.063692 0.725384
vt 0.063689 0.733621
vt 0.052459 0.733488
vt 0.052454 0.725241
vt 0.741953 0.126209
vt 0.731083 0.092268
vt 0.742605 0.096297
vt 0.560745 0.114626
vt 0.560247 0.096863
vt 0.571570 0.096584
vt 0.572074 0.114844
vt 0.559354 0.077387
vt 0.554385 0.060752
vt 0.570908 0.073430
vt 0.659898 0.115400
vt 0.510753 0.054593
vt 0.488307 0.053776
vt 0.904942 0.281458
vt 0.901328 0.284240
vt 0.905893 0.447129
vt 0.912689 0.265519
vt 0.913868 0.255599
vt 0.915958 0.245392
vt 0.912637 0.427388
vt 0.907011 0.478088
vt 0.915438 0.234760
vt 0.895544 0.427706
vt 0.733107 0.037006
vt 0.744341 0.036615
vt 0.744030 0.054916
vt 0.560996 0.132695
vt 0.572301 0.133207
vt 0.743416 0.073157
vt 0.898875 0.554307
vt 0.911367 0.157914
vt 0.829660 0.644525
vt 0.802430 0.602405
vt 0.841343 0.574203
vt 0.870717 0.614378
vt 0.664168 0.453172
vt 0.600880 0.400185
vt 0.659151 0.341313
vt 0.707290 0.394352
vt 0.534368 0.353981
vt 0.593674 0.286922
vt 0.171808 0.008360
vt 0.202360 0.026564
vt 0.255323 0.126026
vt 0.241476 0.132697
vt 0.208963 0.208443
vt 0.217943 0.199939
vt 0.218830 0.200853
vt 0.209595 0.209109
vt 0.431390 0.352733
vt 0.383312 0.307229
vt 0.420038 0.265675
vt 0.466120 0.304821
vt 0.518751 0.231312
vt 0.761010 0.553420
vt 0.719522 0.504320
vt 0.761957 0.465850
vt 0.802020 0.519378
vt 0.904512 0.778384
vt 0.856910 0.686592
vt 0.899481 0.654858
vt 0.957300 0.736916
vt 0.850345 0.820123
vt 0.813157 0.724619
vt 0.828350 0.707638
vt 0.862414 0.811683
vt 0.722802 0.591495
vt 0.675984 0.545419
vt 0.691856 0.529918
vt 0.734051 0.575840
vt 0.491516 0.413966
vt 0.422430 0.363521
vt 0.499985 0.402026
vt 0.419388 0.390075
vt 0.417928 0.391615
vt 0.371150 0.341943
vt 0.372327 0.340737
vt 0.558974 0.459991
vt 0.571018 0.445455
vt 0.629678 0.508842
vt 0.638468 0.491473
vt 0.788205 0.678738
vt 0.762785 0.638002
vt 0.776282 0.621741
vt 0.802341 0.664697
vt 0.903189 0.843612
vt 0.891331 0.853263
vt 0.347529 0.354314
vt 0.356720 0.346310
vt 0.392972 0.384514
vt 0.382999 0.391691
vt 0.447116 0.459469
vt 0.457055 0.452315
vt 0.515148 0.512852
vt 0.505563 0.521348
vt 0.533679 0.512136
vt 0.532601 0.513103
vt 0.476717 0.453963
vt 0.477894 0.452512
vt 0.617185 0.638216
vt 0.626717 0.629674
vt 0.673609 0.678421
vt 0.663365 0.686545
vt 0.744534 0.771084
vt 0.753696 0.761911
vt 0.787835 0.798051
vt 0.779036 0.806782
vt 0.476637 0.201620
vt 0.857094 0.870276
vt 0.848435 0.879274
vt 0.180362 0.178143
vt 0.189528 0.169755
vt 0.633188 0.617470
vt 0.631415 0.619133
vt 0.590919 0.576138
vt 0.592761 0.574505
vt 0.710233 0.735048
vt 0.719470 0.726488
vt 0.565481 0.565518
vt 0.554951 0.573217
vt 0.279568 0.313869
vt 0.269119 0.324259
vt 0.192868 0.266724
vt 0.200703 0.252440
vt 0.987699 0.779058
vt 0.936283 0.817493
vt 0.125317 0.116509
vt 0.130900 0.111288
vt 0.113768 0.266396
vt 0.103270 0.282418
vt 0.102624 0.281320
vt 0.081565 0.245617
vt 0.272804 0.069722
vt 0.292324 0.102882
vt 0.307644 0.092555
vt 0.308421 0.093043
vt 0.797159 0.866710
vt 0.806063 0.854980
vt 0.837464 0.897382
vt 0.827441 0.908860
vt 0.259441 0.261596
vt 0.268858 0.253205
vt 0.314454 0.301606
vt 0.305172 0.309713
vt 0.719805 0.710293
vt 0.718040 0.711944
vt 0.676033 0.667279
vt 0.678145 0.665325
vt 0.631607 0.826732
vt 0.599601 0.866113
vt 0.561099 0.835369
vt 0.590713 0.797699
vt 0.447638 0.653087
vt 0.388514 0.694504
vt 0.336677 0.643313
vt 0.397464 0.587551
vt 0.285377 0.576923
vt 0.354189 0.519105
vt 0.228489 0.357091
vt 0.166299 0.305092
vt 0.173002 0.402557
vt 0.139736 0.344981
vt 0.357429 0.416171
vt 0.308044 0.448784
vt 0.270930 0.401033
vt 0.314050 0.366151
vt 0.233387 0.499454
vt 0.543578 0.754190
vt 0.508705 0.794493
vt 0.456365 0.751632
vt 0.496331 0.710610
vt 0.762030 0.907293
vt 0.717906 0.958018
vt 0.638736 0.896788
vt 0.672446 0.855782
vt 0.583272 0.717663
vt 0.567153 0.728239
vt 0.523106 0.684084
vt 0.539346 0.668851
vt 0.416184 0.479073
vt 0.403680 0.486846
vt 0.368541 0.407881
vt 0.204982 0.455097
vt 0.443978 0.559694
vt 0.459106 0.548204
vt 0.504685 0.621012
vt 0.487017 0.629081
vt 0.694710 0.828166
vt 0.711735 0.813988
vt 0.103234 0.088614
vt 0.104237 0.087664
vt 0.799952 0.940863
vt 0.759147 0.990443
vt 0.024617 0.141808
vt 0.145450 0.216415
vt 0.138528 0.230412
vt 0.041348 0.173250
vt 0.652946 0.800317
vt 0.611167 0.772418
vt 0.752669 0.745270
vt 0.788768 0.782982
vt 0.786501 0.784631
vt 0.750198 0.747140
vt 0.628000 0.759643
vt 0.324068 0.356187
vt 0.343400 0.260501
vt 0.289287 0.181898
vt 0.328804 0.157050
vt 0.377954 0.221326
vt 0.372860 0.316770
vt 0.332560 0.270425
vt 0.274670 0.189063
vt 0.216459 0.175169
vt 0.214800 0.176735
vt 0.117355 0.072748
vt 0.118360 0.071800
vt 0.666918 0.787213
vt 0.861622 0.855024
vt 0.859249 0.857313
vt 0.899626 0.891527
vt 0.896199 0.894966
vt 0.893370 0.908154
vt 0.884225 0.916926
vt 0.425568 0.167377
vt 0.328729 0.297075
vt 0.329896 0.295866
vt 0.259876 0.224529
vt 0.261548 0.222969
vt 0.369592 0.131718
s 1
usemtl LP_texture
f 310/1/1 233/2/2 119/3/3 109/4/4
f 107/5/5 10/6/6 11/7/7 450/8/8
f 2/9/9 8/10/10 409/11/11 403/12/12
f 65/13/13 69/14/14 408/15/15 405/16/16
f 73/17/17 6/18/18 376/19/19 390/20/20
f 14/21/21 15/22/22 420/23/23 446/24/24
f 4/25/25 5/26/26 380/27/27 382/28/28
f 75/29/29 17/30/30 421/31/31 433/32/32
f 77/33/33 18/34/34 425/35/35 435/36/36
f 18/34/34 19/37/37 426/38/38 425/35/35
f 19/37/37 20/39/39 432/40/40 426/38/38
f 20/39/39 21/41/41 430/42/42 432/40/40
f 430/42/42 413/43/43 414/44/44 391/45/45
f 22/46/46 23/47/47 26/48/48 27/49/49
f 24/50/50 25/51/51 26/48/48 23/47/47
f 70/52/52 7/53/53 374/54/54 381/55/55
f 108/56/56 9/57/57 33/58/58 87/59/59
f 83/60/60 38/61/61 36/62/62 101/63/63
f 41/64/64 57/65/65 91/66/66 86/67/67
f 105/68/68 46/69/69 58/70/70 92/71/71
f 57/65/65 42/72/72 106/73/73 91/66/66
f 233/2/2 232/74/74 118/75/75 119/3/3
f 6/18/18 67/76/76 402/77/77 376/19/19
f 298/78/78 43/79/79 53/80/80 321/81/81
f 267/82/82 265/83/83 135/84/84 136/85/85
f 357/86/86 71/87/87 12/88/88 236/89/89
f 364/90/90 237/91/91 121/92/92 182/93/93
f 324/94/94 299/95/95 152/96/96 162/97/97
f 276/98/98 267/99/82 136/100/85 140/101/99
f 240/102/100 14/21/21 74/103/101 363/104/102
f 326/105/103 301/106/104 153/107/105 163/108/106
f 371/109/107 78/110/108 3/111/109 218/112/110
f 285/113/111 281/114/112 143/115/113 145/116/114
f 365/117/115 75/118/29 16/119/116 244/120/117
f 332/121/118 303/122/119 154/123/120 166/124/121
f 223/125/122 362/126/123 181/127/124 114/128/125
f 280/129/126 284/130/127 144/131/128 142/132/129
f 219/133/130 4/134/25 76/135/131 367/136/132
f 368/137/133 271/138/134 138/139/135 184/140/136
f 366/141/137 243/142/138 124/143/139 183/144/140
f 340/145/141 305/146/142 155/147/143 170/148/144
f 271/138/134 372/149/145 186/150/146 138/139/135
f 372/149/145 217/151/147 111/152/148 186/150/146
f 343/153/149 285/113/111 145/116/114 172/154/150
f 370/155/151 245/156/152 125/157/153 185/158/154
f 350/159/155 223/125/122 114/128/125 175/160/156
f 281/114/112 277/161/157 141/162/158 143/115/113
f 284/130/127 288/163/159 146/164/160 144/131/128
f 248/165/161 18/166/34 77/167/33 369/168/162
f 328/169/163 295/170/164 150/171/165 164/172/166
f 225/173/167 7/53/53 70/52/52 356/174/168
f 362/126/123 269/175/169 137/176/170 181/127/124
f 253/177/171 251/178/172 128/179/173 129/180/174
f 228/181/175 8/10/10 2/9/9 311/182/176
f 292/183/177 336/184/178 168/185/179 148/186/180
f 255/187/181 253/177/171 129/180/174 130/188/182
f 229/189/183 227/190/184 116/191/185 117/192/186
f 263/193/187 262/194/188 133/195/189 134/196/190
f 287/197/191 38/61/61 63/198/192 342/199/193
f 257/200/194 255/187/181 130/188/182 131/201/195
f 7/53/53 2/9/9 403/12/12 374/54/54
f 290/202/196 343/153/149 172/154/150 147/203/197
f 259/204/198 257/200/194 131/201/195 132/205/199
f 232/206/74 280/129/126 142/132/129 118/207/75
f 330/208/200 293/209/201 149/210/202 165/211/203
f 262/194/188 259/204/198 132/205/199 133/195/189
f 235/212/204 310/1/1 109/4/4 120/213/205
f 313/214/206 307/215/207 156/216/208 157/217/209
f 265/83/83 263/193/187 134/196/190 135/84/84
f 317/218/210 313/214/206 157/217/209 159/219/211
f 325/220/212 55/221/213 45/222/214 302/223/215
f 81/224/216 52/225/217 50/226/218 79/227/219
f 322/228/220 317/218/210 159/219/211 161/229/221
f 321/81/81 53/80/80 51/230/222 318/231/223
f 48/232/224 49/233/225 80/234/226 103/235/227
f 299/95/95 297/236/228 151/237/229 152/96/96
f 337/238/230 61/239/231 59/240/232 334/241/233
f 44/242/234 54/243/235 52/225/217 81/224/216
f 314/244/236 49/233/225 48/232/224 308/245/237
f 331/246/238 58/70/70 46/69/69 304/247/239
f 106/73/73 42/72/72 56/248/240 89/249/241
f 327/250/242 56/248/240 42/72/72 296/251/243
f 339/252/244 62/253/245 47/254/246 306/255/247
f 101/63/63 36/62/62 34/256/248 88/257/249
f 338/258/250 333/259/251 167/260/252 169/261/253
f 293/209/201 338/258/250 169/261/253 149/210/202
f 98/262/254 40/263/255 63/198/192 100/264/256
f 329/265/257 57/65/65 41/64/64 294/266/258
f 345/267/259 350/159/155 175/160/156 173/268/260
f 40/263/255 98/262/254 93/269/261 60/270/262
f 334/241/233 59/240/232 39/271/263 289/272/264
f 288/163/159 341/273/265 171/274/266 146/164/160
f 92/71/71 58/70/70 47/254/246 85/275/267
f 45/222/214 55/221/213 90/276/268 104/277/269
f 348/278/270 359/279/271 180/280/272 174/281/273
f 67/76/76 65/13/13 405/16/16 402/77/77
f 358/282/274 235/212/204 120/213/205 179/283/275
f 354/284/276 345/267/259 173/268/260 177/285/277
f 351/286/278 68/287/279 66/288/280 347/289/281
f 358/282/274 179/283/275 180/280/272 359/279/271
f 71/87/87 72/290/282 424/291/283 451/292/284
f 226/293/285 355/294/286 178/295/287 115/296/288
f 363/104/102 74/103/101 13/297/289 238/298/290
f 353/299/291 69/14/14 65/13/13 346/300/292
f 349/301/293 67/76/76 6/18/18 224/302/294
f 241/303/295 239/304/296 122/305/297 123/306/298
f 29/307/299 73/17/17 390/20/20 379/308/300
f 369/168/162 77/167/33 17/309/30 246/310/301
f 220/311/302 368/137/133 184/140/136 112/312/303
f 16/313/116 75/29/29 433/32/32 422/314/304
f 249/315/305 247/316/306 126/317/307 127/318/308
f 367/136/132 76/135/131 30/319/309 272/320/310
f 17/30/30 77/33/33 435/36/36 421/31/31
f 60/270/262 93/269/261 95/321/311 62/253/245
f 88/257/249 34/256/248 10/322/6 107/323/5
f 37/324/312 64/325/313 99/326/314 84/327/315
f 64/325/313 39/271/263 97/328/316 99/326/314
f 35/329/317 37/324/312 84/327/315 102/330/318
f 97/328/316 39/271/263 59/240/232 94/331/319
f 62/253/245 95/321/311 85/275/267 47/254/246
f 51/230/222 53/80/80 43/79/79 82/332/320
f 55/221/213 46/69/69 105/68/68 90/276/268
f 94/331/319 59/240/232 61/239/231 96/333/321
f 96/333/321 61/239/231 41/64/64 86/67/67
f 79/227/219 50/226/218 45/222/214 104/277/269
f 33/58/58 35/329/317 102/330/318 87/59/59
f 100/264/256 63/198/192 38/61/61 83/60/60
f 89/249/241 56/248/240 48/232/224 103/235/227
f 98/262/254 97/328/316 94/331/319 93/269/261
f 88/257/249 87/59/59 102/330/318 101/63/63
f 101/63/63 102/330/318 84/327/315 83/60/60
f 100/264/256 99/326/314 97/328/316 98/262/254
f 83/60/60 84/327/315 99/326/314 100/264/256
f 93/269/261 94/331/319 96/333/321 95/321/311
f 95/321/311 96/333/321 86/67/67 85/275/267
f 104/277/269 103/235/227 80/234/226 79/227/219
f 90/276/268 89/249/241 103/235/227 104/277/269
f 92/71/71 91/66/66 106/73/73 105/68/68
f 85/275/267 86/67/67 91/66/66 92/71/71
f 79/227/219 80/234/226 82/332/320 81/224/216
f 107/323/5 108/56/56 87/59/59 88/257/249
f 81/224/216 82/332/320 43/79/79 44/242/234
f 105/68/68 106/73/73 89/249/241 90/276/268
f 49/233/225 51/230/222 82/332/320 80/234/226
f 108/334/56 107/5/5 450/8/8 409/11/11
f 231/335/322 10/322/6 34/256/248 279/336/323
f 116/191/185 400/337/324 216/338/325 117/192/186
f 110/339/326 398/340/327 400/337/324 116/191/185
f 173/268/260 399/341/328 410/342/329 177/285/277
f 181/127/124 383/343/330 394/344/331 114/128/125
f 122/305/297 445/345/332 448/346/333 123/306/298
f 112/347/303 377/348/334 406/349/335 113/350/336
f 428/351/337 389/352/338 373/353/339 437/354/340
f 185/355/154 431/356/341 416/357/342 126/358/307
f 375/359/343 111/360/148 139/361/344 378/362/345
f 127/363/308 444/364/346 423/365/347 128/366/173
f 128/366/173 423/365/347 419/367/348 129/368/174
f 419/367/348 384/369/349 412/370/350 411/371/351
f 130/372/182 135/373/84 134/374/190 131/375/195
f 132/376/199 131/375/195 134/374/190 133/377/189
f 452/378/352 179/283/275 120/213/205 441/379/353
f 216/380/325 195/381/354 141/162/158 117/382/186
f 191/383/355 209/384/356 144/131/128 146/164/160
f 149/210/202 194/385/357 199/386/358 165/211/203
f 213/387/359 200/388/360 166/124/121 154/123/120
f 165/211/203 199/386/358 214/389/361 150/171/165
f 230/390/362 278/391/363 33/58/58 9/57/57
f 394/344/331 443/392/364 434/393/365 397/394/366
f 323/395/367 54/243/235 44/242/234 300/396/368
f 266/397/369 27/398/49 26/399/48 264/400/370
f 236/89/89 12/88/88 1/401/371 309/402/372
f 239/304/296 364/90/90 182/93/93 122/305/297
f 301/106/104 316/403/373 158/404/374 153/107/105
f 268/405/375 28/406/376 27/398/49 266/397/369
f 243/407/138 241/303/295 123/306/298 124/408/139
f 303/122/119 326/105/103 163/108/106 154/123/120
f 218/409/110 3/410/109 31/411/377 273/412/378
f 279/336/323 34/256/248 36/62/62 283/413/379
f 244/414/117 16/415/116 15/22/22 242/416/380
f 305/146/142 332/121/118 166/124/121 155/147/143
f 270/417/381 29/307/299 5/26/26 222/418/382
f 282/419/383 35/329/317 33/58/58 278/391/363
f 222/418/382 5/26/26 4/25/25 219/420/130
f 274/421/384 276/98/98 140/101/99 139/361/344
f 245/156/152 366/141/137 183/144/140 125/157/153
f 307/215/207 328/169/163 164/172/166 156/216/208
f 361/422/385 73/17/17 29/307/299 270/417/381
f 221/423/386 220/424/302 112/347/303 113/350/336
f 283/413/379 36/62/62 38/61/61 287/197/191
f 247/316/306 370/155/151 185/158/154 126/317/307
f 312/425/387 226/293/285 115/296/288 110/339/326
f 273/412/378 31/411/377 32/426/388 275/427/389
f 286/428/390 37/324/312 35/329/317 282/419/383
f 251/178/172 249/315/305 127/318/308 128/179/173
f 297/236/228 322/228/220 161/229/221 151/237/229
f 311/182/176 2/9/9 7/53/53 225/173/167
f 275/427/389 32/426/388 28/429/376 268/430/375
f 252/431/391 20/432/39 19/433/37 250/434/392
f 229/435/183 117/382/186 141/162/158 277/161/157
f 342/199/193 63/198/192 40/263/255 291/436/393
f 254/437/394 21/438/41 20/432/39 252/431/391
f 230/439/362 9/440/57 8/10/10 228/181/175
f 261/441/395 25/442/51 24/443/50 260/444/396
f 344/445/397 64/325/313 37/324/312 286/428/390
f 256/446/398 22/447/46 21/438/41 254/437/394
f 115/296/288 401/448/399 398/340/327 110/339/326
f 341/273/265 292/183/177 148/186/180 171/274/266
f 258/449/400 23/450/47 22/447/46 256/446/398
f 234/451/401 11/7/7 10/6/6 231/452/322
f 295/170/164 330/208/200 165/211/203 150/171/165
f 260/444/396 24/443/50 23/450/47 258/449/400
f 309/402/372 1/401/371 11/7/7 234/451/401
f 318/231/223 51/230/222 49/233/225 314/244/236
f 264/400/370 26/399/48 25/442/51 261/441/395
f 316/403/373 320/453/402 160/454/403 158/404/374
f 302/223/215 45/222/214 50/226/218 315/455/404
f 189/456/405 187/457/406 158/404/374 160/454/403
f 320/453/402 324/94/94 162/97/97 160/454/403
f 315/455/404 50/226/218 52/225/217 319/458/407
f 156/216/208 211/459/408 188/460/409 157/217/209
f 300/396/368 44/242/234 43/79/79 298/78/78
f 319/458/407 52/225/217 54/243/235 323/395/367
f 152/96/96 189/456/405 160/454/403 162/97/97
f 308/245/237 48/232/224 56/248/240 327/250/242
f 304/247/239 46/69/69 55/221/213 325/220/212
f 214/389/361 197/461/410 164/172/166 150/171/165
f 296/251/243 42/72/72 57/65/65 329/265/257
f 306/255/247 47/254/246 58/70/70 331/246/238
f 209/384/356 196/462/411 142/132/129 144/131/128
f 336/184/178 340/145/141 170/148/144 168/185/179
f 291/436/393 40/263/255 60/270/262 335/463/412
f 206/464/413 208/465/414 171/274/266 148/186/180
f 294/266/258 41/64/64 61/239/231 337/238/230
f 335/463/412 60/270/262 62/253/245 339/252/244
f 148/186/180 168/185/179 201/466/415 206/464/413
f 333/259/251 290/202/196 147/203/197 167/260/252
f 289/272/264 39/271/263 64/325/313 344/445/397
f 200/388/360 193/467/416 155/147/143 166/124/121
f 153/107/105 212/468/417 198/469/418 163/108/106
f 354/284/276 177/285/277 178/295/287 355/294/286
f 175/160/156 397/394/366 399/341/328 173/268/260
f 237/91/91 352/470/419 176/471/420 121/92/92
f 347/289/281 66/288/280 72/290/282 360/472/421
f 352/470/419 348/278/270 174/281/273 176/471/420
f 357/86/86 360/472/421 72/290/282 71/87/87
f 353/299/291 356/174/168 70/52/52 69/14/14
f 179/283/275 452/378/352 427/473/422 180/280/272
f 227/190/184 312/425/387 110/339/326 116/191/185
f 238/298/290 13/297/289 68/287/279 351/286/278
f 346/300/292 65/13/13 67/76/76 349/301/293
f 224/302/294 6/18/18 73/17/17 361/422/385
f 242/416/380 15/22/22 14/21/21 240/102/100
f 137/176/170 404/474/423 383/343/330 181/127/124
f 246/310/301 17/309/30 75/118/29 365/117/115
f 269/175/169 221/423/386 113/350/336 137/176/170
f 124/475/139 449/476/424 428/351/337 183/477/140
f 250/434/392 19/433/37 18/166/34 248/165/161
f 272/320/310 30/319/309 78/110/108 371/109/107
f 125/478/153 437/354/340 431/356/341 185/355/154
f 168/185/179 170/148/144 203/479/425 201/466/415
f 196/462/411 215/480/426 118/207/75 142/132/129
f 145/116/114 192/481/427 207/482/428 172/154/150
f 172/154/150 207/482/428 205/483/429 147/203/197
f 143/115/113 210/484/430 192/481/427 145/116/114
f 205/483/429 202/485/431 167/260/252 147/203/197
f 170/148/144 155/147/143 193/467/416 203/479/425
f 159/219/211 190/486/432 151/237/229 161/229/221
f 163/108/106 198/469/418 213/387/359 154/123/120
f 202/485/431 204/487/433 169/261/253 167/260/252
f 204/487/433 194/385/357 149/210/202 169/261/253
f 187/457/406 212/468/417 153/107/105 158/404/374
f 141/162/158 195/381/354 210/484/430 143/115/113
f 208/465/414 191/383/355 146/164/160 171/274/266
f 197/461/410 211/459/408 156/216/208 164/172/166
f 206/464/413 201/466/415 202/485/431 205/483/429
f 196/462/411 209/384/356 210/484/430 195/381/354
f 209/384/356 191/383/355 192/481/427 210/484/430
f 208/465/414 206/464/413 205/483/429 207/482/428
f 191/383/355 208/465/414 207/482/428 192/481/427
f 201/466/415 203/479/425 204/487/433 202/485/431
f 203/479/425 193/467/416 194/385/357 204/487/433
f 212/468/417 187/457/406 188/460/409 211/459/408
f 198/469/418 212/468/417 211/459/408 197/461/410
f 200/388/360 213/387/359 214/389/361 199/386/358
f 193/467/416 200/388/360 199/386/358 194/385/357
f 187/457/406 189/456/405 190/486/432 188/460/409
f 215/480/426 196/462/411 195/381/354 216/380/325
f 189/456/405 152/96/96 151/237/229 190/486/432
f 213/387/359 198/469/418 197/461/410 214/389/361
f 157/217/209 188/460/409 190/486/432 159/219/211
f 215/488/426 216/338/325 400/337/324 439/489/434
f 220/311/302 221/490/386 222/491/382 219/133/130
f 362/492/123 223/493/122 224/494/294 361/495/385
f 312/496/387 227/497/184 228/498/175 311/499/176
f 227/497/184 229/500/183 230/501/362 228/498/175
f 232/502/74 233/503/2 234/504/401 231/505/322
f 310/506/1 235/507/204 236/508/89 309/509/372
f 352/510/419 237/511/91 238/512/290 351/513/278
f 364/514/90 239/515/296 240/516/100 363/517/102
f 239/515/296 241/518/295 242/519/380 240/516/100
f 241/518/295 243/142/138 244/120/117 242/519/380
f 370/155/151 247/316/306 248/165/161 369/168/162
f 247/316/306 249/315/305 250/434/392 248/165/161
f 249/315/305 251/178/172 252/431/391 250/434/392
f 251/178/172 253/177/171 254/437/394 252/431/391
f 253/177/171 255/187/181 256/446/398 254/437/394
f 255/187/181 257/200/194 258/449/400 256/446/398
f 257/200/194 259/204/198 260/444/396 258/449/400
f 262/194/188 263/193/187 264/400/370 261/441/395
f 263/193/187 265/83/83 266/397/369 264/400/370
f 265/83/83 267/82/82 268/405/375 266/397/369
f 221/490/386 269/520/169 270/521/381 222/491/382
f 372/149/145 271/138/134 272/320/310 371/109/107
f 259/204/198 262/194/188 261/441/395 260/444/396
f 231/522/322 279/523/323 280/524/126 232/525/74
f 278/526/363 230/527/362 229/528/183 277/529/157
f 279/523/323 283/530/379 284/531/127 280/524/126
f 282/532/383 278/526/363 277/529/157 281/533/112
f 283/530/379 287/534/191 288/535/159 284/531/127
f 286/536/390 282/532/383 281/533/112 285/537/111
f 342/538/193 291/539/393 292/540/177 341/541/265
f 344/542/397 286/536/390 285/537/111 343/543/149
f 338/544/250 293/545/201 294/546/258 337/547/230
f 330/548/200 295/549/164 296/550/243 329/551/257
f 322/552/220 297/553/228 298/554/78 321/555/81
f 297/553/228 299/556/95 300/557/368 298/554/78
f 316/558/373 301/559/104 302/560/215 315/561/404
f 326/562/103 303/563/119 304/564/239 325/565/212
f 332/566/118 305/567/142 306/568/247 331/569/238
f 336/570/178 292/540/177 291/539/393 335/571/412
f 328/572/163 307/573/207 308/574/237 327/575/242
f 269/520/169 362/492/123 361/495/385 270/521/381
f 233/503/2 310/506/1 309/509/372 234/504/401
f 226/576/285 312/496/387 311/499/176 225/577/167
f 366/141/137 245/156/152 246/310/301 365/117/115
f 368/137/133 220/311/302 219/133/130 367/136/132
f 307/573/207 313/578/206 314/579/236 308/574/237
f 320/580/402 316/558/373 315/561/404 319/581/407
f 313/578/206 317/582/210 318/583/223 314/579/236
f 324/584/94 320/580/402 319/581/407 323/585/367
f 317/582/210 322/552/220 321/555/81 318/583/223
f 299/556/95 324/584/94 323/585/367 300/557/368
f 301/559/104 326/562/103 325/565/212 302/560/215
f 295/549/164 328/572/163 327/575/242 296/550/243
f 293/545/201 330/548/200 329/551/257 294/546/258
f 303/563/119 332/566/118 331/569/238 304/564/239
f 290/586/196 333/587/251 334/588/233 289/589/264
f 340/590/141 336/570/178 335/571/412 339/591/244
f 333/587/251 338/544/250 337/547/230 334/588/233
f 305/567/142 340/590/141 339/591/244 306/568/247
f 287/534/191 342/538/193 341/541/265 288/535/159
f 289/589/264 344/542/397 343/543/149 290/586/196
f 350/592/155 345/593/259 346/594/292 349/595/293
f 348/596/270 352/510/419 351/513/278 347/597/281
f 223/493/122 350/592/155 349/595/293 224/494/294
f 237/511/91 364/514/90 363/517/102 238/512/290
f 360/598/421 357/599/86 358/600/274 359/601/271
f 356/602/168 353/603/291 354/604/276 355/605/286
f 225/577/167 356/602/168 355/605/286 226/576/285
f 353/603/291 346/594/292 345/593/259 354/604/276
f 347/597/281 360/598/421 359/601/271 348/596/270
f 357/599/86 236/508/89 235/507/204 358/600/274
f 243/142/138 366/141/137 365/117/115 244/120/117
f 271/138/134 368/137/133 367/136/132 272/320/310
f 245/156/152 370/155/151 369/168/162 246/310/301
f 217/151/147 372/149/145 371/109/107 218/112/110
f 217/606/147 274/421/384 139/361/344 111/360/148
f 416/357/342 375/359/343 378/362/345 444/364/346
f 375/359/343 392/607/435 186/608/146 111/360/148
f 395/609/436 385/610/437 30/611/309 76/612/131
f 396/613/438 387/614/439 3/410/109 78/615/108
f 386/616/440 378/362/345 139/361/344 140/101/99
f 387/614/439 388/617/441 31/411/377 3/410/109
f 384/369/349 386/616/440 140/101/99 136/100/85
f 388/617/441 393/618/442 32/426/388 31/411/377
f 135/373/84 412/370/350 384/369/349 136/100/85
f 393/618/442 391/45/45 28/429/376 32/426/388
f 414/44/44 413/43/43 22/46/46 27/49/49
f 381/55/55 374/54/54 415/619/443 451/292/284
f 403/12/12 409/11/11 450/8/8 442/620/444
f 399/341/328 397/394/366 434/393/365 438/621/445
f 402/77/77 405/16/16 447/622/446 440/623/447
f 376/19/19 402/77/77 440/623/447 417/624/448
f 374/54/54 403/12/12 442/620/444 415/619/443
f 410/342/329 407/625/449 178/295/287 177/285/277
f 381/55/55 408/15/15 69/14/14 70/52/52
f 383/343/330 404/474/423 445/345/332 418/626/450
f 379/308/300 390/20/20 429/627/451 446/24/24
f 398/340/327 401/448/399 441/379/353 436/628/452
f 389/352/338 377/629/334 112/630/303 184/631/136
f 382/632/28 395/609/436 76/612/131 4/633/25
f 400/337/324 398/340/327 436/628/452 439/489/434
f 410/342/329 399/341/328 438/621/445 427/473/422
f 392/607/435 373/353/339 138/634/135 186/608/146
f 385/610/437 396/613/438 78/615/108 30/611/309
f 394/344/331 383/343/330 418/626/450 443/392/364
f 405/16/16 408/15/15 424/291/283 447/622/446
f 406/349/335 404/474/423 137/176/170 113/350/336
f 390/20/20 376/19/19 417/624/448 429/627/451
f 406/349/335 377/348/334 449/635/424 448/346/333
f 379/308/300 380/27/27 5/26/26 29/307/299
f 373/353/339 389/352/338 184/631/136 138/634/135
f 382/28/28 380/27/27 420/23/23 422/636/304
f 114/128/125 394/344/331 397/394/366 175/160/156
f 178/295/287 407/625/449 401/448/399 115/296/288
f 407/625/449 452/378/352 441/379/353 401/448/399
f 416/357/342 431/356/341 392/607/435 375/359/343
f 433/32/32 421/31/31 385/610/437 395/609/436
f 435/36/36 425/35/35 387/614/439 396/613/438
f 423/365/347 444/364/346 378/362/345 386/616/440
f 425/35/35 426/38/38 388/617/441 387/614/439
f 419/367/348 423/365/347 386/616/440 384/369/349
f 426/38/38 432/40/40 393/618/442 388/617/441
f 432/40/40 430/42/42 391/45/45 393/618/442
f 451/292/284 415/619/443 12/88/88 71/87/87
f 442/620/444 450/8/8 11/7/7 1/401/371
f 438/621/445 434/393/365 176/471/420 174/281/273
f 440/623/447 447/622/446 66/288/280 68/287/279
f 417/624/448 440/623/447 68/287/279 13/297/289
f 415/619/443 442/620/444 1/401/371 12/88/88
f 434/393/365 443/392/364 121/92/92 176/471/420
f 418/626/450 445/345/332 122/305/297 182/93/93
f 446/24/24 429/627/451 74/103/101 14/21/21
f 436/628/452 441/379/353 120/213/205 109/4/4
f 427/473/422 452/378/352 407/625/449 410/342/329
f 451/292/284 424/291/283 408/15/15 381/55/55
f 439/489/434 436/628/452 109/4/4 119/3/3
f 427/473/422 438/621/445 174/281/273 180/280/272
f 443/392/364 418/626/450 182/93/93 121/92/92
f 447/622/446 424/291/283 72/290/282 66/288/280
f 429/627/451 417/624/448 13/297/289 74/103/101
f 428/351/337 449/476/424 377/629/334 389/352/338
f 422/314/304 433/32/32 395/609/436 382/632/28
f 448/346/333 449/635/424 124/408/139 123/306/298
f 431/356/341 437/354/340 373/353/339 392/607/435
f 421/31/31 435/36/36 396/613/438 385/610/437
f 422/636/304 420/23/23 15/22/22 16/415/116
f 448/346/333 445/345/332 404/474/423 406/349/335
f 446/24/24 420/23/23 380/27/27 379/308/300
f 183/477/140 428/351/337 437/354/340 125/478/153
f 126/358/307 416/357/342 444/364/346 127/363/308
f 129/368/174 419/367/348 411/371/351 130/372/182
f 130/372/182 411/371/351 412/370/350 135/373/84
f 21/41/41 22/46/46 413/43/43 430/42/42
f 391/45/45 414/44/44 27/49/49 28/429/376
f 108/334/56 409/11/11 8/10/10 9/440/57
f 118/75/75 215/488/426 439/489/434 119/3/3
f 488/637/453 478/638/454 456/639/455 485/640/456
f 496/641/457 479/642/458 458/643/459 493/644/460
f 479/642/458 480/645/461 460/646/462 458/643/459
f 461/647/463 473/648/464 562/649/465 559/650/466
f 484/651/467 524/652/468 565/653/469 557/654/470
f 474/655/471 546/656/472 548/657/473 481/658/474
f 480/645/461 481/658/474 463/659/475 460/646/462
f 492/660/476 482/661/477 465/662/478 490/663/479
f 477/664/480 483/665/481 468/666/482 454/667/483
f 453/668/484 467/669/485 476/670/486 469/671/487
f 489/672/488 466/673/489 475/674/490 491/675/491
f 459/676/492 464/677/493 474/655/471 472/678/494
f 464/679/495 505/680/496 550/681/497 541/682/498
f 457/683/499 459/676/492 472/678/494 471/684/500
f 494/685/501 457/683/499 471/684/500 495/686/502
f 486/687/503 455/688/504 470/689/505 487/690/506
f 453/668/484 469/671/487 275/691/507 268/692/508
f 544/693/509 552/694/510 504/695/511 463/696/512
f 460/697/513 502/698/514 500/699/515 458/700/516
f 457/701/517 537/702/518 501/703/519 459/704/520
f 465/705/521 506/706/522 529/707/523 490/708/524
f 485/709/525 525/710/526 508/711/527 468/712/528
f 481/658/474 548/657/473 544/713/529 463/659/475
f 468/712/528 508/711/527 497/714/530 454/715/531
f 462/716/532 503/717/533 524/652/468 484/651/467
f 459/704/520 501/703/519 505/680/496 464/679/495
f 466/718/534 507/719/534 533/720/535 494/721/536
f 456/722/537 499/723/538 525/710/526 485/709/525
f 458/700/516 500/699/515 532/724/539 493/725/540
f 490/708/524 529/707/523 499/723/538 456/722/537
f 549/726/541 554/727/542 568/728/543 571/729/544
f 477/664/480 454/667/483 218/730/545 273/731/546
f 473/732/547 513/733/548 503/717/533 462/716/532
f 469/671/487 477/664/480 273/731/546 275/691/507
f 469/671/487 476/670/486 483/665/481 477/664/480
f 491/675/491 475/674/490 482/661/477 492/660/476
f 472/678/494 474/655/471 481/658/474 480/645/461
f 570/734/549 565/735/550 524/736/551 503/737/552
f 562/649/465 473/648/464 462/738/553 563/739/554
f 471/684/500 472/678/494 480/645/461 479/642/458
f 495/686/502 471/684/500 479/642/458 496/641/457
f 487/690/506 470/689/505 478/638/454 488/637/453
f 493/725/540 532/724/539 506/706/522 465/705/521
f 476/670/486 487/690/506 488/637/453 483/665/481
f 563/739/554 462/738/553 484/740/555 557/741/556
f 509/742/557 538/743/558 267/744/559 276/745/560
f 467/669/485 486/687/503 487/690/506 476/670/486
f 483/665/481 488/637/453 485/640/456 468/666/482
f 470/689/505 491/675/491 492/660/476 478/638/454
f 558/746/561 566/747/562 551/748/563 543/749/564
f 455/750/565 498/751/566 528/752/567 489/753/568
f 455/688/504 489/672/488 491/675/491 470/689/505
f 478/638/454 492/660/476 490/663/479 456/639/455
f 475/674/490 495/686/502 496/641/457 482/661/477
f 463/696/512 504/695/511 502/698/514 460/697/513
f 466/673/489 494/685/501 495/686/502 475/674/490
f 482/661/477 496/641/457 493/644/460 465/662/478
f 527/754/569 525/755/570 499/756/571 518/757/572
f 535/758/573 532/759/574 500/760/575 519/761/576
f 519/761/576 500/760/575 502/762/577 520/763/578
f 554/727/542 556/764/579 569/765/580 568/728/543
f 556/764/579 551/766/581 566/767/582 569/765/580
f 514/768/583 521/769/584 555/770/585 553/771/586
f 520/763/578 502/762/577 504/772/587 521/769/584
f 531/773/588 529/774/589 506/775/590 522/776/591
f 517/777/592 497/778/593 508/779/594 523/780/595
f 528/781/596 530/782/597 515/783/598 507/784/599
f 501/785/600 512/786/601 514/768/583 505/787/602
f 521/769/584 504/772/587 552/788/603 555/770/585
f 494/721/536 533/720/535 537/702/518 457/701/517
f 511/789/604 537/790/605 533/791/606 534/792/607
f 538/743/558 509/742/557 516/793/608 539/794/609
f 501/785/600 537/790/605 511/789/604 512/786/601
f 473/732/547 461/795/610 536/796/611 513/733/548
f 517/777/592 274/797/612 217/798/613 497/778/593
f 509/742/557 276/745/560 274/797/612 517/777/592
f 509/742/557 517/777/592 523/780/595 516/793/608
f 530/782/597 531/773/588 522/776/591 515/783/598
f 512/786/601 520/763/578 521/769/584 514/768/583
f 536/799/614 572/800/615 567/801/616 513/802/617
f 567/801/616 570/734/549 503/737/552 513/802/617
f 511/789/604 519/761/576 520/763/578 512/786/601
f 534/792/607 535/758/573 519/761/576 511/789/604
f 526/803/618 527/754/569 518/757/572 510/804/619
f 516/793/608 523/780/595 527/754/569 526/803/618
f 486/805/620 467/806/621 539/807/622 540/808/623
f 523/780/595 508/779/594 525/755/570 527/754/569
f 510/804/619 518/757/572 531/773/588 530/782/597
f 498/809/624 510/804/619 530/782/597 528/781/596
f 518/757/572 499/756/571 529/774/589 531/773/588
f 515/783/598 522/776/591 535/758/573 534/792/607
f 507/784/599 515/783/598 534/792/607 533/791/606
f 522/776/591 506/775/590 532/759/574 535/758/573
f 505/787/602 514/768/583 553/771/586 550/810/625
f 545/811/626 561/812/627 564/813/628 547/814/629
f 464/677/493 541/815/630 546/656/472 474/655/471
f 545/811/626 542/816/631 560/817/632 561/812/627
f 559/818/633 572/819/634 536/820/611 461/821/610
f 540/822/635 539/794/609 516/793/608 526/803/618
f 498/809/624 540/822/635 526/803/618 510/804/619
f 486/805/620 540/808/623 498/751/566 455/750/565
f 467/806/621 453/823/636 538/824/637 539/807/622
f 453/823/636 268/825/375 267/826/82 538/824/637
f 489/753/568 528/752/567 507/719/534 466/718/534
f 454/715/531 497/714/530 217/827/147 218/828/110
f 546/656/472 541/815/630 542/816/631 545/811/626
f 548/657/473 546/656/472 545/811/626 547/814/629
f 544/713/529 548/657/473 547/814/629 543/829/638
f 554/727/542 549/726/541 550/810/625 553/771/586
f 556/764/579 554/727/542 553/771/586 555/770/585
f 552/694/510 544/693/509 543/749/564 551/748/563
f 549/830/639 542/831/640 541/682/498 550/681/497
f 551/766/581 556/764/579 555/770/585 552/788/603
f 542/831/640 549/830/639 571/832/641 560/833/642
f 564/813/628 561/812/627 562/649/465 563/739/554
f 558/834/643 564/813/628 563/739/554 557/741/556
f 570/734/549 567/801/616 568/728/543 569/765/580
f 557/654/470 565/653/469 566/747/562 558/746/561
f 565/735/550 570/734/549 569/765/580 566/767/582
f 560/833/642 571/832/641 572/819/634 559/818/633
f 559/650/466 562/649/465 561/812/627 560/817/632
f 567/801/616 572/800/615 571/729/544 568/728/543
f 547/814/629 564/813/628 558/834/643 543/829/638
